%FSTAX23Y23*%
%MOIN*%
%SFA1B1*%

%IPPOS*%
%AMD30*
4,1,8,-0.026500,0.004000,-0.026500,-0.004000,-0.024500,-0.006000,0.024500,-0.006000,0.026500,-0.004000,0.026500,0.004000,0.024500,0.006000,-0.024500,0.006000,-0.026500,0.004000,0.0*
1,1,0.004000,-0.024500,0.004000*
1,1,0.004000,-0.024500,-0.004000*
1,1,0.004000,0.024500,-0.004000*
1,1,0.004000,0.024500,0.004000*
%
%ADD19R,0.047000X0.047000*%
%ADD20R,0.041000X0.055000*%
%ADD21R,0.024000X0.012000*%
%ADD22R,0.045000X0.057000*%
%ADD23R,0.057000X0.045000*%
%ADD24R,0.083000X0.051000*%
%ADD25O,0.051000X0.012000*%
%ADD26O,0.012000X0.051000*%
%ADD27R,0.049000X0.043000*%
%ADD28R,0.055000X0.041000*%
%ADD29R,0.024000X0.059000*%
G04~CAMADD=30~8~0.0~0.0~120.0~530.0~20.0~0.0~15~0.0~0.0~0.0~0.0~0~0.0~0.0~0.0~0.0~0~0.0~0.0~0.0~90.0~530.0~120.0*
%ADD30D30*%
%ADD31R,0.047000X0.043000*%
%ADD72C,0.060000*%
%ADD73C,0.079000*%
%ADD74R,0.079000X0.079000*%
%ADD75C,0.081000*%
%ADD76C,0.083000*%
%ADD77R,0.083000X0.083000*%
%ADD78O,0.207000X0.060000*%
%ADD79C,0.144000*%
%ADD80C,0.037000*%
%ADD81R,0.037000X0.037000*%
%ADD82O,0.060000X0.207000*%
%ADD83C,0.059000*%
%ADD84C,0.065000*%
%ADD85C,0.049000*%
%ADD86C,0.197000*%
%ADD87C,0.075000*%
%ADD88C,0.065000*%
%ADD89C,0.121000*%
%ADD90C,0.117000*%
%ADD91R,0.117000X0.117000*%
%ADD92C,0.061000*%
%ADD93R,0.061000X0.061000*%
%LNbatt_man_rev2-1*%
%LPD*%
G54D19*
X0098Y00731D03*
Y00649D03*
X00665D03*
Y00731D03*
G54D20*
X01153Y00715D03*
X01227D03*
X01198Y0154D03*
X01272D03*
X00552Y0087D03*
X00478D03*
X02217Y0117D03*
X02143D03*
X02862Y01865D03*
X02788D03*
X02568Y01725D03*
X02642D03*
X02568Y01595D03*
X02642D03*
X00668Y00865D03*
X00742D03*
X00838D03*
X00912D03*
X03057Y0186D03*
X02983D03*
G54D21*
X02207Y0127D03*
Y0129D03*
Y0131D03*
X02133D03*
Y0129D03*
Y0127D03*
G54D22*
X00593Y01315D03*
X00523D03*
X01795Y00732D03*
X01725D03*
X01485Y00725D03*
X01415D03*
X01383Y01356D03*
X01454D03*
X0305Y0066D03*
X0312D03*
G54D23*
X00785Y01265D03*
Y01195D03*
X0118Y00919D03*
Y0099D03*
X01885Y01245D03*
Y01174D03*
X03055Y0163D03*
Y017D03*
X01225Y0128D03*
Y0121D03*
X00765Y0165D03*
Y0158D03*
G54D24*
X01106Y01355D03*
Y01155D03*
X00924D03*
Y01355D03*
G54D25*
X01338Y01198D03*
Y01178D03*
Y01158D03*
Y01139D03*
Y01119D03*
Y01099D03*
Y0108D03*
Y0106D03*
Y0104D03*
Y0102D03*
Y01001D03*
Y00981D03*
Y00961D03*
Y00942D03*
Y00922D03*
Y00902D03*
X01782D03*
Y00922D03*
Y00942D03*
Y00961D03*
Y00981D03*
Y01001D03*
Y0102D03*
Y0104D03*
Y0106D03*
Y0108D03*
Y01099D03*
Y01119D03*
Y01139D03*
Y01158D03*
Y01178D03*
Y01198D03*
G54D26*
X01412Y00828D03*
X01432D03*
X01452D03*
X01471D03*
X01491D03*
X01511D03*
X0153D03*
X0155D03*
X0157D03*
X0159D03*
X01609D03*
X01629D03*
X01649D03*
X01668D03*
X01688D03*
X01708D03*
Y01272D03*
X01688D03*
X01668D03*
X01649D03*
X01629D03*
X01609D03*
X0159D03*
X0157D03*
X0155D03*
X0153D03*
X01511D03*
X01491D03*
X01471D03*
X01452D03*
X01432D03*
X01412D03*
G54D27*
X00525Y00739D03*
Y00641D03*
G54D28*
X02775Y0117D03*
Y01245D03*
G54D29*
X0302Y00755D03*
X0307D03*
X0312D03*
X0317D03*
Y00964D03*
X0312D03*
X0307D03*
X0302D03*
G54D30*
X02757Y01651D03*
Y0167D03*
Y0169D03*
Y0171D03*
X02933Y01651D03*
Y0167D03*
Y0169D03*
Y0171D03*
X02757Y01729D03*
X02933D03*
G54D31*
X0083Y00649D03*
Y00731D03*
G54D72*
X03153Y01404D03*
Y01285D03*
X03035Y01404D03*
Y01285D03*
G54D73*
X02131Y0337D03*
G54D74*
X01719Y0337D03*
G54D75*
X00975Y02193D03*
Y01755D03*
G54D76*
X008Y03118D03*
X0119D03*
Y03252D03*
G54D77*
X008Y03252D03*
G54D78*
X0033Y0282D03*
Y02525D03*
X03505Y0288D03*
Y02585D03*
X0283Y0288D03*
Y02585D03*
G54D79*
X00285Y03013D03*
Y02355D03*
X0346Y03073D03*
Y02415D03*
X02785Y03073D03*
Y02415D03*
X0235Y0164D03*
X01692D03*
G54D80*
X0129Y0172D03*
X0134D03*
X0139D03*
X0144D03*
X0149D03*
X0129Y0177D03*
X0134D03*
X0139D03*
X0144D03*
G54D81*
X0149Y0177D03*
G54D82*
X0218Y01685D03*
X01885D03*
G54D83*
X00385Y01204D03*
X00641D03*
X00385Y01026D03*
X00641D03*
G54D84*
X00165Y0131D03*
Y0121D03*
Y0111D03*
X03019Y01095D03*
X03119D03*
X03219D03*
G54D85*
X00654Y01758D03*
Y0166D03*
Y01562D03*
G54D86*
X00185Y0331D03*
Y00704D03*
X0356Y0331D03*
Y00704D03*
G54D87*
X02565Y0203D03*
X03165D03*
G54D88*
X02075Y0291D03*
X01675D03*
G54D89*
X01525Y0231D03*
G54D90*
X01875Y0301D03*
G54D91*
X02225Y0241D03*
G54D92*
X02455Y0119D03*
Y0109D03*
Y0099D03*
Y0089D03*
Y0079D03*
G54D93*
X02455Y0069D03*
M02*