%FSTAX23Y23*%
%MOIN*%
%SFA1B1*%

%IPPOS*%
%AMD42*
4,1,8,-0.030500,0.004000,-0.030500,-0.004000,-0.024500,-0.010000,0.024500,-0.010000,0.030500,-0.004000,0.030500,0.004000,0.024500,0.010000,-0.024500,0.010000,-0.030500,0.004000,0.0*
1,1,0.012000,-0.024500,0.004000*
1,1,0.012000,-0.024500,-0.004000*
1,1,0.012000,0.024500,-0.004000*
1,1,0.012000,0.024500,0.004000*
%
%ADD31R,0.055000X0.055000*%
%ADD32R,0.049000X0.063000*%
%ADD33R,0.032000X0.020000*%
%ADD34R,0.053000X0.065000*%
%ADD35R,0.065000X0.053000*%
%ADD36R,0.091000X0.059000*%
%ADD37O,0.059000X0.020000*%
%ADD38O,0.020000X0.059000*%
%ADD39R,0.057000X0.051000*%
%ADD40R,0.063000X0.049000*%
%ADD41R,0.032000X0.067000*%
G04~CAMADD=42~8~0.0~0.0~200.0~610.0~60.0~0.0~15~0.0~0.0~0.0~0.0~0~0.0~0.0~0.0~0.0~0~0.0~0.0~0.0~90.0~610.0~200.0*
%ADD42D42*%
%ADD43R,0.055000X0.051000*%
%ADD44C,0.091000*%
%ADD45R,0.091000X0.091000*%
%ADD46O,0.215000X0.068000*%
%ADD47C,0.152000*%
%ADD48C,0.099000*%
%ADD49C,0.045000*%
%ADD50R,0.045000X0.045000*%
%ADD51O,0.068000X0.215000*%
%ADD52C,0.067000*%
%ADD53C,0.073000*%
%ADD54C,0.068000*%
%ADD55R,0.068000X0.068000*%
%ADD56C,0.057000*%
%ADD57C,0.205000*%
%ADD58C,0.073000*%
%ADD59C,0.072000*%
%ADD60C,0.129000*%
%ADD61C,0.125000*%
%ADD62R,0.125000X0.125000*%
%ADD63C,0.069000*%
%ADD64R,0.069000X0.069000*%
%ADD65C,0.058000*%
%LNbatt_man_rev2-1*%
%LPD*%
G54D31*
X0098Y00731D03*
Y00649D03*
X00665D03*
Y00731D03*
G54D32*
X01153Y00715D03*
X01227D03*
X01198Y0154D03*
X01272D03*
X00552Y0087D03*
X00478D03*
X02207Y0119D03*
X02133D03*
X02872Y01845D03*
X02798D03*
X02568Y01725D03*
X02642D03*
X02568Y01595D03*
X02642D03*
X00668Y00865D03*
X00742D03*
X00838D03*
X00912D03*
X03055Y01845D03*
X0298D03*
G54D33*
X02207Y0127D03*
Y0129D03*
Y0131D03*
X02133D03*
Y0129D03*
Y0127D03*
G54D34*
X00625Y01327D03*
X00555D03*
X01795Y00732D03*
X01725D03*
X01485Y00725D03*
X01415D03*
X01383Y01356D03*
X01454D03*
X0305Y0071D03*
X0312D03*
G54D35*
X00815Y01285D03*
Y01215D03*
X0118Y00919D03*
Y0099D03*
X01885Y01245D03*
Y01174D03*
X03055Y0163D03*
Y017D03*
X01215Y0128D03*
Y0121D03*
X00765Y0165D03*
Y0158D03*
G54D36*
X01106Y01355D03*
Y01155D03*
X00924D03*
Y01355D03*
G54D37*
X01338Y01198D03*
Y01178D03*
Y01158D03*
Y01139D03*
Y01119D03*
Y01099D03*
Y0108D03*
Y0106D03*
Y0104D03*
Y0102D03*
Y01001D03*
Y00981D03*
Y00961D03*
Y00942D03*
Y00922D03*
Y00902D03*
X01782D03*
Y00922D03*
Y00942D03*
Y00961D03*
Y00981D03*
Y01001D03*
Y0102D03*
Y0104D03*
Y0106D03*
Y0108D03*
Y01099D03*
Y01119D03*
Y01139D03*
Y01158D03*
Y01178D03*
Y01198D03*
G54D38*
X01412Y00828D03*
X01432D03*
X01452D03*
X01471D03*
X01491D03*
X01511D03*
X0153D03*
X0155D03*
X0157D03*
X0159D03*
X01609D03*
X01629D03*
X01649D03*
X01668D03*
X01688D03*
X01708D03*
Y01272D03*
X01688D03*
X01668D03*
X01649D03*
X01629D03*
X01609D03*
X0159D03*
X0157D03*
X0155D03*
X0153D03*
X01511D03*
X01491D03*
X01471D03*
X01452D03*
X01432D03*
X01412D03*
G54D39*
X00525Y00739D03*
Y00641D03*
G54D40*
X02775Y0117D03*
Y01245D03*
G54D41*
X03015Y0079D03*
X03065D03*
X03115D03*
X03165D03*
Y00999D03*
X03115D03*
X03065D03*
X03015D03*
G54D42*
X02757Y01651D03*
Y0167D03*
Y0169D03*
Y0171D03*
X02933Y01651D03*
Y0167D03*
Y0169D03*
Y0171D03*
X02757Y01729D03*
X02933D03*
G54D43*
X0083Y00649D03*
Y00731D03*
G54D44*
X0087Y03103D03*
X0126D03*
Y03237D03*
G54D45*
X0087Y03237D03*
G54D46*
X0045Y02825D03*
Y0253D03*
X0349Y02875D03*
Y0258D03*
X02915Y02875D03*
Y0258D03*
G54D47*
X00405Y03018D03*
Y0236D03*
X03444Y03068D03*
Y0241D03*
X0287Y03068D03*
Y0241D03*
X0235Y0164D03*
X01692D03*
G54D48*
X00935Y0171D03*
Y02148D03*
G54D49*
X0129Y0172D03*
X0134D03*
X0139D03*
X0144D03*
X0149D03*
X0129Y0177D03*
X0134D03*
X0139D03*
X0144D03*
G54D50*
X0149Y0177D03*
G54D51*
X0218Y01685D03*
X01885D03*
G54D52*
X00432Y012D03*
X00688D03*
X00432Y01023D03*
X00688D03*
G54D53*
X00165Y0131D03*
Y0121D03*
Y0111D03*
X03015Y01155D03*
X03115D03*
X03215D03*
G54D54*
X03115Y01315D03*
G54D55*
X03015Y01315D03*
G54D56*
X00654Y01758D03*
Y0166D03*
Y01562D03*
G54D57*
X00185Y0331D03*
Y00704D03*
X0356Y0331D03*
Y00704D03*
G54D58*
X02615Y02005D03*
X03215D03*
G54D59*
X02135Y02905D03*
X01735D03*
G54D60*
X01585Y02305D03*
G54D61*
X01935Y03005D03*
G54D62*
X02285Y02405D03*
G54D63*
X02123Y03355D03*
X01747D03*
X02455Y0119D03*
Y0109D03*
Y0099D03*
Y0089D03*
Y0079D03*
G54D64*
X02455Y0069D03*
G54D65*
X01215Y0142D03*
X00815Y01125D03*
X0118Y00845D03*
X01185Y01065D03*
X0227Y01485D03*
X01389Y0151D03*
X03055Y0177D03*
X00465Y01327D03*
X0319Y00702D03*
X02965Y00704D03*
X0306Y01555D03*
X0189Y01095D03*
X0188Y0131D03*
X01315Y01355D03*
X0153D03*
X0135Y00724D03*
X01555Y00727D03*
X01875Y00728D03*
X01645Y00724D03*
X02495Y0164D03*
X0248Y01395D03*
X02701Y01775D03*
X02568Y01505D03*
Y01815D03*
X0082Y0137D03*
X00755Y00555D03*
M02*