%FSTAX23Y23*%
%MOIN*%
%SFA1B1*%

%IPPOS*%
%ADD44C,0.091000*%
%ADD45R,0.091000X0.091000*%
%ADD46O,0.215000X0.068000*%
%ADD47C,0.152000*%
%ADD48C,0.099000*%
%ADD49C,0.045000*%
%ADD50R,0.045000X0.045000*%
%ADD51O,0.068000X0.215000*%
%ADD52C,0.067000*%
%ADD53C,0.073000*%
%ADD54C,0.068000*%
%ADD55R,0.068000X0.068000*%
%ADD56C,0.057000*%
%ADD57C,0.205000*%
%ADD58C,0.073000*%
%ADD59C,0.072000*%
%ADD60C,0.129000*%
%ADD61C,0.125000*%
%ADD62R,0.125000X0.125000*%
%ADD63C,0.069000*%
%ADD64R,0.069000X0.069000*%
%ADD65C,0.058000*%
%LNbatt_man_rev2-1*%
%LPD*%
G54D44*
X0087Y03103D03*
X0126D03*
Y03237D03*
G54D45*
X0087Y03237D03*
G54D46*
X0045Y02825D03*
Y0253D03*
X0349Y02875D03*
Y0258D03*
X02915Y02875D03*
Y0258D03*
G54D47*
X00405Y03018D03*
Y0236D03*
X03444Y03068D03*
Y0241D03*
X0287Y03068D03*
Y0241D03*
X0235Y0164D03*
X01692D03*
G54D48*
X00935Y0171D03*
Y02148D03*
G54D49*
X0129Y0172D03*
X0134D03*
X0139D03*
X0144D03*
X0149D03*
X0129Y0177D03*
X0134D03*
X0139D03*
X0144D03*
G54D50*
X0149Y0177D03*
G54D51*
X0218Y01685D03*
X01885D03*
G54D52*
X00432Y012D03*
X00688D03*
X00432Y01023D03*
X00688D03*
G54D53*
X00165Y0131D03*
Y0121D03*
Y0111D03*
X03015Y01155D03*
X03115D03*
X03215D03*
G54D54*
X03115Y01315D03*
G54D55*
X03015Y01315D03*
G54D56*
X00654Y01758D03*
Y0166D03*
Y01562D03*
G54D57*
X00185Y0331D03*
Y00704D03*
X0356Y0331D03*
Y00704D03*
G54D58*
X02615Y02005D03*
X03215D03*
G54D59*
X02135Y02905D03*
X01735D03*
G54D60*
X01585Y02305D03*
G54D61*
X01935Y03005D03*
G54D62*
X02285Y02405D03*
G54D63*
X02123Y03355D03*
X01747D03*
X02455Y0119D03*
Y0109D03*
Y0099D03*
Y0089D03*
Y0079D03*
G54D64*
X02455Y0069D03*
G54D65*
X01215Y0142D03*
X00815Y01125D03*
X0118Y00845D03*
X01185Y01065D03*
X0227Y01485D03*
X01389Y0151D03*
X03055Y0177D03*
X00465Y01327D03*
X0319Y00702D03*
X02965Y00704D03*
X0306Y01555D03*
X0189Y01095D03*
X0188Y0131D03*
X01315Y01355D03*
X0153D03*
X0135Y00724D03*
X01555Y00727D03*
X01875Y00728D03*
X01645Y00724D03*
X02495Y0164D03*
X0248Y01395D03*
X02701Y01775D03*
X02568Y01505D03*
Y01815D03*
X0082Y0137D03*
X00755Y00555D03*
M02*