%FSTAX23Y23*%
%MOIN*%
%SFA1B1*%

%IPPOS*%
%ADD9500C,0.025000*%
%ADD9501C,0.028000*%
%ADD9502C,0.033000*%
%ADD9503C,0.039000*%
%ADD9504C,0.040000*%
%ADD9505C,0.041000*%
%ADD9506C,0.043000*%
%ADD9507C,0.045000*%
%ADD9508C,0.063000*%
%ADD9509C,0.078000*%
%ADD9510C,0.081000*%
%ADD9511C,0.126000*%
%ADD9512C,0.130000*%
%LNbatt_man_rev2-roundholes-1*%
%LPD*%
G54D9500*
X0129Y0172D03*
X0134D03*
X0139D03*
X0144D03*
X0149D03*
Y0177D03*
X0144D03*
X0139D03*
X0134D03*
X0129D03*
G54D9501*
X00755Y00555D03*
X00815Y01125D03*
X0082Y0137D03*
X00465Y01327D03*
X01215Y0142D03*
X01315Y01355D03*
X0153D03*
X01389Y0151D03*
X01185Y01065D03*
X0118Y00845D03*
X0135Y00724D03*
X01555Y00727D03*
X01645Y00724D03*
X01875Y00728D03*
X0189Y01095D03*
X0188Y0131D03*
X0227Y01485D03*
X0248Y01395D03*
X02568Y01505D03*
X0306Y01555D03*
X02965Y00704D03*
X0319Y00702D03*
X03055Y0177D03*
X02701Y01775D03*
X02568Y01815D03*
X02495Y0164D03*
G54D9502*
X00654Y01562D03*
Y0166D03*
Y01758D03*
G54D9503*
X00432Y01023D03*
Y012D03*
X00688D03*
Y01023D03*
G54D9504*
X02455Y0069D03*
Y0079D03*
Y0089D03*
Y0099D03*
Y0109D03*
Y0119D03*
X03015Y01315D03*
X03115D03*
G54D9505*
X01747Y03355D03*
X02123D03*
G54D9506*
X00165Y0111D03*
Y0121D03*
Y0131D03*
X03015Y01155D03*
X03115D03*
X03215D03*
X02135Y02905D03*
X01735D03*
G54D9507*
X03215Y02005D03*
X02615D03*
G54D9508*
X00935Y0171D03*
Y02148D03*
X0087Y03103D03*
X0126D03*
Y03237D03*
X0087D03*
G54D9509*
X02285Y02405D03*
X01935Y03005D03*
G54D9510*
X01585Y02305D03*
G54D9511*
X00185Y00704D03*
X0356D03*
X00185Y0331D03*
X0356D03*
G54D9512*
X03444Y0241D03*
Y03068D03*
X0287D03*
Y0241D03*
X0235Y0164D03*
X01692D03*
X00405Y0236D03*
Y03018D03*
M02*