%FSTAX23Y23*%
%MOIN*%
%SFA1B1*%

%IPPOS*%
%AMD29*
4,1,8,-0.026500,0.004000,-0.026500,-0.004000,-0.024500,-0.006000,0.024500,-0.006000,0.026500,-0.004000,0.026500,0.004000,0.024500,0.006000,-0.024500,0.006000,-0.026500,0.004000,0.0*
1,1,0.004000,-0.024500,0.004000*
1,1,0.004000,-0.024500,-0.004000*
1,1,0.004000,0.024500,-0.004000*
1,1,0.004000,0.024500,0.004000*
%
%ADD18R,0.047000X0.047000*%
%ADD19R,0.041000X0.055000*%
%ADD20R,0.024000X0.012000*%
%ADD21R,0.045000X0.057000*%
%ADD22R,0.057000X0.045000*%
%ADD23R,0.083000X0.051000*%
%ADD24O,0.051000X0.012000*%
%ADD25O,0.012000X0.051000*%
%ADD26R,0.049000X0.043000*%
%ADD27R,0.055000X0.041000*%
%ADD28R,0.024000X0.059000*%
G04~CAMADD=29~8~0.0~0.0~120.0~530.0~20.0~0.0~15~0.0~0.0~0.0~0.0~0~0.0~0.0~0.0~0.0~0~0.0~0.0~0.0~90.0~530.0~120.0*
%ADD29D29*%
%ADD30R,0.047000X0.043000*%
%ADD69C,0.083000*%
%ADD70R,0.083000X0.083000*%
%ADD71O,0.207000X0.060000*%
%ADD72C,0.144000*%
%ADD73C,0.091000*%
%ADD74C,0.037000*%
%ADD75R,0.037000X0.037000*%
%ADD76O,0.060000X0.207000*%
%ADD77C,0.059000*%
%ADD78C,0.065000*%
%ADD79C,0.060000*%
%ADD80R,0.060000X0.060000*%
%ADD81C,0.049000*%
%ADD82C,0.197000*%
%ADD83C,0.065000*%
%ADD84C,0.065000*%
%ADD85C,0.121000*%
%ADD86C,0.117000*%
%ADD87R,0.117000X0.117000*%
%ADD88C,0.061000*%
%ADD89R,0.061000X0.061000*%
%LNbatt_man_rev2-1*%
%LPD*%
G54D18*
X0098Y00731D03*
Y00649D03*
X00665D03*
Y00731D03*
G54D19*
X01153Y00715D03*
X01227D03*
X01198Y0154D03*
X01272D03*
X00552Y0087D03*
X00478D03*
X02207Y0119D03*
X02133D03*
X02872Y01845D03*
X02798D03*
X02568Y01725D03*
X02642D03*
X02568Y01595D03*
X02642D03*
X00668Y00865D03*
X00742D03*
X00838D03*
X00912D03*
X03055Y01845D03*
X0298D03*
G54D20*
X02207Y0127D03*
Y0129D03*
Y0131D03*
X02133D03*
Y0129D03*
Y0127D03*
G54D21*
X00625Y01327D03*
X00555D03*
X01795Y00732D03*
X01725D03*
X01485Y00725D03*
X01415D03*
X01383Y01356D03*
X01454D03*
X0305Y0071D03*
X0312D03*
G54D22*
X00815Y01285D03*
Y01215D03*
X0118Y00919D03*
Y0099D03*
X01885Y01245D03*
Y01174D03*
X03055Y0163D03*
Y017D03*
X01215Y0128D03*
Y0121D03*
X00765Y0165D03*
Y0158D03*
G54D23*
X01106Y01355D03*
Y01155D03*
X00924D03*
Y01355D03*
G54D24*
X01338Y01198D03*
Y01178D03*
Y01158D03*
Y01139D03*
Y01119D03*
Y01099D03*
Y0108D03*
Y0106D03*
Y0104D03*
Y0102D03*
Y01001D03*
Y00981D03*
Y00961D03*
Y00942D03*
Y00922D03*
Y00902D03*
X01782D03*
Y00922D03*
Y00942D03*
Y00961D03*
Y00981D03*
Y01001D03*
Y0102D03*
Y0104D03*
Y0106D03*
Y0108D03*
Y01099D03*
Y01119D03*
Y01139D03*
Y01158D03*
Y01178D03*
Y01198D03*
G54D25*
X01412Y00828D03*
X01432D03*
X01452D03*
X01471D03*
X01491D03*
X01511D03*
X0153D03*
X0155D03*
X0157D03*
X0159D03*
X01609D03*
X01629D03*
X01649D03*
X01668D03*
X01688D03*
X01708D03*
Y01272D03*
X01688D03*
X01668D03*
X01649D03*
X01629D03*
X01609D03*
X0159D03*
X0157D03*
X0155D03*
X0153D03*
X01511D03*
X01491D03*
X01471D03*
X01452D03*
X01432D03*
X01412D03*
G54D26*
X00525Y00739D03*
Y00641D03*
G54D27*
X02775Y0117D03*
Y01245D03*
G54D28*
X03015Y0079D03*
X03065D03*
X03115D03*
X03165D03*
Y00999D03*
X03115D03*
X03065D03*
X03015D03*
G54D29*
X02757Y01651D03*
Y0167D03*
Y0169D03*
Y0171D03*
X02933Y01651D03*
Y0167D03*
Y0169D03*
Y0171D03*
X02757Y01729D03*
X02933D03*
G54D30*
X0083Y00649D03*
Y00731D03*
G54D69*
X0087Y03103D03*
X0126D03*
Y03237D03*
G54D70*
X0087Y03237D03*
G54D71*
X0045Y02825D03*
Y0253D03*
X0349Y02875D03*
Y0258D03*
X02915Y02875D03*
Y0258D03*
G54D72*
X00405Y03018D03*
Y0236D03*
X03444Y03068D03*
Y0241D03*
X0287Y03068D03*
Y0241D03*
X0235Y0164D03*
X01692D03*
G54D73*
X00935Y0171D03*
Y02148D03*
G54D74*
X0129Y0172D03*
X0134D03*
X0139D03*
X0144D03*
X0149D03*
X0129Y0177D03*
X0134D03*
X0139D03*
X0144D03*
G54D75*
X0149Y0177D03*
G54D76*
X0218Y01685D03*
X01885D03*
G54D77*
X00432Y012D03*
X00688D03*
X00432Y01023D03*
X00688D03*
G54D78*
X00165Y0131D03*
Y0121D03*
Y0111D03*
X03015Y01155D03*
X03115D03*
X03215D03*
G54D79*
X03115Y01315D03*
G54D80*
X03015Y01315D03*
G54D81*
X00654Y01758D03*
Y0166D03*
Y01562D03*
G54D82*
X00185Y0331D03*
Y00704D03*
X0356Y0331D03*
Y00704D03*
G54D83*
X02615Y02005D03*
X03215D03*
G54D84*
X02135Y02905D03*
X01735D03*
G54D85*
X01585Y02305D03*
G54D86*
X01935Y03005D03*
G54D87*
X02285Y02405D03*
G54D88*
X02123Y03355D03*
X01747D03*
X02455Y0119D03*
Y0109D03*
Y0099D03*
Y0089D03*
Y0079D03*
G54D89*
X02455Y0069D03*
M02*