%FSTAX23Y23*%
%MOIN*%
%SFA1B1*%

%IPPOS*%
%ADD66C,0.011000*%
%ADD69C,0.083000*%
%ADD70R,0.083000X0.083000*%
%ADD71O,0.207000X0.060000*%
%ADD72C,0.144000*%
%ADD73C,0.091000*%
%ADD74C,0.037000*%
%ADD75R,0.037000X0.037000*%
%ADD76O,0.060000X0.207000*%
%ADD77C,0.059000*%
%ADD78C,0.065000*%
%ADD79C,0.060000*%
%ADD80R,0.060000X0.060000*%
%ADD81C,0.049000*%
%ADD82C,0.197000*%
%ADD83C,0.065000*%
%ADD84C,0.065000*%
%ADD85C,0.121000*%
%ADD86C,0.117000*%
%ADD87R,0.117000X0.117000*%
%ADD88C,0.061000*%
%ADD89R,0.061000X0.061000*%
%ADD90C,0.050000*%
%LNbatt_man_rev2-1*%
%LPD*%
G36*
X0104Y0341D02*
Y02725D01*
X01035*
X00085Y0272*
X0008Y02725*
Y03255*
X00085Y03256*
X00093Y03243*
X00104Y03229*
X00118Y03218*
X00133Y03209*
X0015Y03202*
X00167Y03198*
X00185Y03196*
X00203Y03198*
X0022Y03202*
X00237Y03209*
X00252Y03218*
X00266Y03229*
X00277Y03243*
X00286Y03258*
X00293Y03275*
X00297Y03292*
X00299Y0331*
X00297Y03328*
X00293Y03345*
X00286Y03362*
X00277Y03377*
X00266Y03391*
X00252Y03402*
X00239Y0341*
X0024Y03415*
X01035*
X0104Y0341*
G37*
G36*
X01795Y0195D02*
X0179Y01945D01*
X00094*
X0009Y01949*
X00095Y02645*
X01795*
Y0195*
G37*
G36*
X02675Y01955D02*
X0267Y0195D01*
X0198*
X01979*
X01975Y01952*
X0198Y02645*
X02675*
Y01955*
G37*
G36*
X0374Y01795D02*
X03105D01*
Y022*
X031Y02205*
X0281*
Y02341*
X02815Y02344*
X02821Y02338*
X02837Y0233*
X02853Y02325*
X0287Y02323*
X02887Y02325*
X02903Y0233*
X02918Y02338*
X02932Y02349*
X02942Y02362*
X02951Y02377*
X02956Y02393*
X02957Y0241*
X02956Y02427*
X02951Y02444*
X02942Y02459*
X02932Y02472*
X02918Y02483*
X02903Y02491*
X02887Y02496*
X0287Y02498*
X02853Y02496*
X02837Y02491*
X02821Y02483*
X02815Y02477*
X0281Y02479*
Y02548*
X02815Y0255*
X02821Y02545*
X02831Y02541*
X02842Y0254*
X02865*
Y0258*
Y02621*
X02842*
X02831Y02619*
X02821Y02615*
X02815Y0261*
X0281Y02613*
Y028*
X0374*
Y01795*
G37*
%LNbatt_man_rev2-2*%
%LPC*%
G36*
X00921Y03288D02*
X0092D01*
Y03287*
X00921*
Y03288*
G37*
G36*
X0082D02*
X00819D01*
Y03287*
X0082*
Y03288*
G37*
G36*
X00921Y03187D02*
X0092D01*
Y03186*
X00921*
Y03187*
G37*
G36*
X0082D02*
X00819D01*
Y03186*
X0082*
Y03187*
G37*
G36*
X00405Y03105D02*
X00388Y03104D01*
X00372Y03099*
X00356Y0309*
X00343Y0308*
X00332Y03066*
X00324Y03051*
X00319Y03035*
X00318Y03018*
X00319Y03001*
X00324Y02985*
X00332Y02969*
X00343Y02956*
X00356Y02945*
X00372Y02937*
X00388Y02932*
X00405Y02931*
X00422Y02932*
X00438Y02937*
X00453Y02945*
X00467Y02956*
X00477Y02969*
X00486Y02985*
X00491Y03001*
X00492Y03018*
X00491Y03035*
X00486Y03051*
X00477Y03066*
X00467Y0308*
X00453Y0309*
X00438Y03099*
X00422Y03104*
X00405Y03105*
G37*
G36*
X01635Y02355D02*
D01*
G37*
G36*
X01535D02*
D01*
G37*
G36*
X00405Y02448D02*
X00388Y02446D01*
X00372Y02441*
X00356Y02433*
X00343Y02422*
X00332Y02409*
X00324Y02394*
X00319Y02377*
X00318Y0236*
X00319Y02343*
X00324Y02327*
X00332Y02312*
X00343Y02299*
X00356Y02288*
X00372Y0228*
X00388Y02275*
X00405Y02273*
X00422Y02275*
X00438Y0228*
X00453Y02288*
X00467Y02299*
X00477Y02312*
X00486Y02327*
X00491Y02343*
X00492Y0236*
X00491Y02377*
X00486Y02394*
X00477Y02409*
X00467Y02422*
X00453Y02433*
X00438Y02441*
X00422Y02446*
X00405Y02448*
G37*
G36*
X01635Y02255D02*
D01*
G37*
G36*
X01535D02*
D01*
G37*
G36*
X02353Y02474D02*
X02335D01*
Y02455*
X02353*
Y02474*
G37*
G36*
X02235D02*
X02217D01*
Y02455*
X02235*
Y02474*
G37*
G36*
X02353Y02355D02*
X02335D01*
Y02336*
X02353*
Y02355*
G37*
G36*
X02235D02*
X02217D01*
Y02336*
X02235*
Y02355*
G37*
G36*
X03444Y02498D02*
X03427Y02496D01*
X03411Y02491*
X03396Y02483*
X03383Y02472*
X03372Y02459*
X03364Y02444*
X03359Y02427*
X03357Y0241*
X03359Y02393*
X03364Y02377*
X03372Y02362*
X03383Y02349*
X03396Y02338*
X03411Y0233*
X03427Y02325*
X03444Y02323*
X03461Y02325*
X03478Y0233*
X03493Y02338*
X03506Y02349*
X03517Y02362*
X03525Y02377*
X0353Y02393*
X03532Y0241*
X0353Y02427*
X03525Y02444*
X03517Y02459*
X03506Y02472*
X03493Y02483*
X03478Y02491*
X03461Y02496*
X03444Y02498*
G37*
%LNbatt_man_rev2-3*%
%LPD*%
G54D66*
X01389Y0151D02*
X0139Y01511D01*
Y0172*
X0248Y01395D02*
X02495Y0141D01*
Y0164*
G54D69*
X0087Y03103D03*
X0126D03*
Y03237D03*
G54D70*
X0087Y03237D03*
G54D71*
X0045Y02825D03*
Y0253D03*
X0349Y02875D03*
Y0258D03*
X02915Y02875D03*
Y0258D03*
G54D72*
X00405Y03018D03*
Y0236D03*
X03444Y03068D03*
Y0241D03*
X0287Y03068D03*
Y0241D03*
X0235Y0164D03*
X01692D03*
G54D73*
X00935Y0171D03*
Y02148D03*
G54D74*
X0129Y0172D03*
X0134D03*
X0139D03*
X0144D03*
X0149D03*
X0129Y0177D03*
X0134D03*
X0139D03*
X0144D03*
G54D75*
X0149Y0177D03*
G54D76*
X0218Y01685D03*
X01885D03*
G54D77*
X00432Y012D03*
X00688D03*
X00432Y01023D03*
X00688D03*
G54D78*
X00165Y0131D03*
Y0121D03*
Y0111D03*
X03015Y01155D03*
X03115D03*
X03215D03*
G54D79*
X03115Y01315D03*
G54D80*
X03015Y01315D03*
G54D81*
X00654Y01758D03*
Y0166D03*
Y01562D03*
G54D82*
X00185Y0331D03*
Y00704D03*
X0356Y0331D03*
Y00704D03*
G54D83*
X02615Y02005D03*
X03215D03*
G54D84*
X02135Y02905D03*
X01735D03*
G54D85*
X01585Y02305D03*
G54D86*
X01935Y03005D03*
G54D87*
X02285Y02405D03*
G54D88*
X02123Y03355D03*
X01747D03*
X02455Y0119D03*
Y0109D03*
Y0099D03*
Y0089D03*
Y0079D03*
G54D89*
X02455Y0069D03*
G54D90*
X01215Y0142D03*
X00815Y01125D03*
X0118Y00845D03*
X01185Y01065D03*
X0227Y01485D03*
X01389Y0151D03*
X03055Y0177D03*
X00465Y01327D03*
X0319Y00702D03*
X02965Y00704D03*
X0306Y01555D03*
X0189Y01095D03*
X0188Y0131D03*
X01315Y01355D03*
X0153D03*
X0135Y00724D03*
X01555Y00727D03*
X01875Y00728D03*
X01645Y00724D03*
X02495Y0164D03*
X0248Y01395D03*
X02701Y01775D03*
X02568Y01505D03*
Y01815D03*
X0082Y0137D03*
X00755Y00555D03*
M02*