%FSTAX23Y23*%
%MOIN*%
%SFA1B1*%

%IPPOS*%
%ADD72C,0.060000*%
%ADD73C,0.079000*%
%ADD74R,0.079000X0.079000*%
%ADD75C,0.081000*%
%ADD76C,0.083000*%
%ADD77R,0.083000X0.083000*%
%ADD78O,0.207000X0.060000*%
%ADD79C,0.144000*%
%ADD80C,0.037000*%
%ADD81R,0.037000X0.037000*%
%ADD82O,0.060000X0.207000*%
%ADD83C,0.059000*%
%ADD84C,0.065000*%
%ADD85C,0.049000*%
%ADD86C,0.197000*%
%ADD87C,0.075000*%
%ADD88C,0.065000*%
%ADD89C,0.121000*%
%ADD90C,0.117000*%
%ADD91R,0.117000X0.117000*%
%ADD92C,0.061000*%
%ADD93R,0.061000X0.061000*%
%LNbatt_man_rev2-1*%
%LPD*%
G54D72*
X03153Y01404D03*
Y01285D03*
X03035Y01404D03*
Y01285D03*
G54D73*
X02131Y0337D03*
G54D74*
X01719Y0337D03*
G54D75*
X00975Y02193D03*
Y01755D03*
G54D76*
X008Y03118D03*
X0119D03*
Y03252D03*
G54D77*
X008Y03252D03*
G54D78*
X0033Y0282D03*
Y02525D03*
X03505Y0288D03*
Y02585D03*
X0283Y0288D03*
Y02585D03*
G54D79*
X00285Y03013D03*
Y02355D03*
X0346Y03073D03*
Y02415D03*
X02785Y03073D03*
Y02415D03*
X0235Y0164D03*
X01692D03*
G54D80*
X0129Y0172D03*
X0134D03*
X0139D03*
X0144D03*
X0149D03*
X0129Y0177D03*
X0134D03*
X0139D03*
X0144D03*
G54D81*
X0149Y0177D03*
G54D82*
X0218Y01685D03*
X01885D03*
G54D83*
X00385Y01204D03*
X00641D03*
X00385Y01026D03*
X00641D03*
G54D84*
X00165Y0131D03*
Y0121D03*
Y0111D03*
X03019Y01095D03*
X03119D03*
X03219D03*
G54D85*
X00654Y01758D03*
Y0166D03*
Y01562D03*
G54D86*
X00185Y0331D03*
Y00704D03*
X0356Y0331D03*
Y00704D03*
G54D87*
X02565Y0203D03*
X03165D03*
G54D88*
X02075Y0291D03*
X01675D03*
G54D89*
X01525Y0231D03*
G54D90*
X01875Y0301D03*
G54D91*
X02225Y0241D03*
G54D92*
X02455Y0119D03*
Y0109D03*
Y0099D03*
Y0089D03*
Y0079D03*
G54D93*
X02455Y0069D03*
M02*