%FSTAX23Y23*%
%MOIN*%
%SFA1B1*%

%IPPOS*%
%ADD9500C,0.025000*%
%ADD9501C,0.028000*%
%ADD9502C,0.033000*%
%ADD9503C,0.039000*%
%ADD9504C,0.040000*%
%ADD9505C,0.043000*%
%ADD9506C,0.045000*%
%ADD9507C,0.047000*%
%ADD9508C,0.054000*%
%ADD9509C,0.063000*%
%ADD9510C,0.078000*%
%ADD9511C,0.081000*%
%ADD9512C,0.126000*%
%ADD9513C,0.130000*%
%ADD9514C,0.040000*%
%LNbatt_man_rev2-roundholes-1*%
%LPD*%
G54D9500*
X0129Y0172D03*
X0134D03*
X0139D03*
X0144D03*
X0149D03*
Y0177D03*
X0144D03*
X0139D03*
X0134D03*
X0129D03*
G54D9501*
X00755Y00555D03*
X00912Y01111D03*
X0091Y0135D03*
X01215Y0142D03*
X01315Y01355D03*
X0153D03*
X01389Y0151D03*
X01185Y01065D03*
X0118Y00845D03*
X0135Y00724D03*
X01555Y00727D03*
X00433Y01315D03*
X0188Y0131D03*
X0189Y01095D03*
X01875Y00728D03*
X01645Y00724D03*
X0227Y01485D03*
X0248Y01395D03*
X02568Y01505D03*
X0306Y01555D03*
X0297Y0066D03*
X032D03*
X03055Y0177D03*
X02701Y01775D03*
X02568Y01815D03*
X02495Y0164D03*
G54D9502*
X00654Y01562D03*
Y0166D03*
Y01758D03*
G54D9503*
X00385Y01026D03*
Y01204D03*
X00641D03*
Y01026D03*
G54D9504*
X02455Y0069D03*
Y0079D03*
Y0089D03*
Y0099D03*
Y0109D03*
Y0119D03*
X02907Y01285D03*
X03025D03*
Y01403D03*
X02907D03*
G54D9505*
X00165Y0111D03*
Y0121D03*
Y0131D03*
X0299Y01085D03*
X0309D03*
X0319D03*
X02075Y0291D03*
X01675D03*
G54D9506*
X03165Y0203D03*
X02565D03*
G54D9507*
X01719Y0337D03*
X02131D03*
G54D9508*
X00975Y01755D03*
Y02193D03*
G54D9509*
X008Y03118D03*
X0119D03*
Y03252D03*
X008D03*
G54D9510*
X02225Y0241D03*
X01875Y0301D03*
G54D9511*
X01525Y0231D03*
G54D9512*
X0015Y0061D03*
X03655D03*
X0015Y03345D03*
X03655D03*
G54D9513*
X0354Y01432D03*
Y0209D03*
X03455Y0237D03*
Y03028D03*
X02795Y03033D03*
Y02375D03*
X0235Y0164D03*
X01692D03*
X00285Y02355D03*
Y03013D03*
G54D9514*
X02789Y0144D03*
X03143D03*
M02*