%FSTAX23Y23*%
%MOIN*%
%SFA1B1*%

%IPPOS*%
%ADD69C,0.011000*%
%ADD72R,0.061000X0.061000*%
%ADD73C,0.061000*%
%ADD74O,0.207000X0.060000*%
%ADD75C,0.144000*%
%ADD76O,0.060000X0.207000*%
%ADD77C,0.060000*%
%ADD78C,0.079000*%
%ADD79R,0.079000X0.079000*%
%ADD80C,0.081000*%
%ADD81C,0.083000*%
%ADD82R,0.083000X0.083000*%
%ADD83C,0.037000*%
%ADD84R,0.037000X0.037000*%
%ADD85C,0.059000*%
%ADD86C,0.065000*%
%ADD87C,0.049000*%
%ADD88C,0.240000*%
%ADD89C,0.075000*%
%ADD90C,0.065000*%
%ADD91C,0.121000*%
%ADD92C,0.117000*%
%ADD93R,0.117000X0.117000*%
%ADD94C,0.050000*%
%LNbatt_man_rev2-1*%
%LPD*%
G36*
X0104Y0341D02*
Y02725D01*
X01035*
X00085Y0272*
X0008Y02725*
Y03224*
X00084Y03227*
X00089Y03224*
X00108Y03216*
X00129Y03211*
X0015Y0321*
X00171Y03211*
X00192Y03216*
X00211Y03224*
X0023Y03235*
X00246Y03249*
X0026Y03265*
X00271Y03284*
X00279Y03303*
X00284Y03324*
X00285Y03345*
X00284Y03366*
X00279Y03387*
X00271Y03406*
X00268Y03411*
X00271Y03415*
X01035*
X0104Y0341*
G37*
G36*
X0171Y02645D02*
Y01945D01*
X00094*
X0009Y01949*
X00095Y02645*
X0171*
G37*
G36*
X02625Y01945D02*
X01915D01*
X01914*
X0191Y01947*
X01915Y0264*
X02625*
Y01945*
G37*
G36*
X0374Y01795D02*
X031D01*
Y02205*
X0269*
Y02695*
X0374*
Y01795*
G37*
%LNbatt_man_rev2-2*%
%LPC*%
G36*
X00851Y03303D02*
X0085D01*
Y03302*
X00851*
Y03303*
G37*
G36*
X0075D02*
X00749D01*
Y03302*
X0075*
Y03303*
G37*
G36*
X00851Y03202D02*
X0085D01*
Y03201*
X00851*
Y03202*
G37*
G36*
X0075D02*
X00749D01*
Y03201*
X0075*
Y03202*
G37*
G36*
X00285Y031D02*
X00268Y03099D01*
X00252Y03094*
X00236Y03085*
X00223Y03075*
X00212Y03061*
X00204Y03046*
X00199Y0303*
X00198Y03013*
X00199Y02996*
X00204Y0298*
X00212Y02964*
X00223Y02951*
X00236Y0294*
X00252Y02932*
X00268Y02927*
X00285Y02926*
X00302Y02927*
X00318Y02932*
X00333Y0294*
X00347Y02951*
X00357Y02964*
X00366Y0298*
X00371Y02996*
X00372Y03013*
X00371Y0303*
X00366Y03046*
X00357Y03061*
X00347Y03075*
X00333Y03085*
X00318Y03094*
X00302Y03099*
X00285Y031*
G37*
G36*
X01575Y0236D02*
D01*
G37*
G36*
X01475D02*
D01*
G37*
G36*
X00285Y02443D02*
X00268Y02441D01*
X00252Y02436*
X00236Y02428*
X00223Y02417*
X00212Y02404*
X00204Y02389*
X00199Y02372*
X00198Y02355*
X00199Y02338*
X00204Y02322*
X00212Y02307*
X00223Y02294*
X00236Y02283*
X00252Y02275*
X00268Y0227*
X00285Y02268*
X00302Y0227*
X00318Y02275*
X00333Y02283*
X00347Y02294*
X00357Y02307*
X00366Y02322*
X00371Y02338*
X00372Y02355*
X00371Y02372*
X00366Y02389*
X00357Y02404*
X00347Y02417*
X00333Y02428*
X00318Y02436*
X00302Y02441*
X00285Y02443*
G37*
G36*
X01575Y0226D02*
D01*
G37*
G36*
X01475D02*
D01*
G37*
G36*
X02293Y02478D02*
X02275D01*
Y0246*
X02293*
Y02478*
G37*
G36*
X02175D02*
X02157D01*
Y0246*
X02175*
Y02478*
G37*
G36*
X02293Y0236D02*
X02275D01*
Y02342*
X02293*
Y0236*
G37*
G36*
X02175D02*
X02157D01*
Y02342*
X02175*
Y0236*
G37*
G36*
X02795Y02463D02*
X02778Y02461D01*
X02762Y02456*
X02746Y02448*
X02733Y02437*
X02722Y02424*
X02714Y02409*
X02709Y02392*
X02708Y02375*
X02709Y02358*
X02714Y02342*
X02722Y02327*
X02733Y02314*
X02746Y02303*
X02762Y02295*
X02778Y0229*
X02795Y02288*
X02812Y0229*
X02828Y02295*
X02843Y02303*
X02857Y02314*
X02867Y02327*
X02876Y02342*
X02881Y02358*
X02882Y02375*
X02881Y02392*
X02876Y02409*
X02867Y02424*
X02857Y02437*
X02843Y02448*
X02828Y02456*
X02812Y02461*
X02795Y02463*
G37*
G36*
X03455Y02458D02*
X03438Y02456D01*
X03422Y02451*
X03406Y02443*
X03393Y02432*
X03382Y02419*
X03374Y02404*
X03369Y02387*
X03368Y0237*
X03369Y02353*
X03374Y02337*
X03382Y02322*
X03393Y02309*
X03406Y02298*
X03422Y0229*
X03438Y02285*
X03455Y02283*
X03472Y02285*
X03488Y0229*
X03503Y02298*
X03517Y02309*
X03527Y02322*
X03536Y02337*
X03541Y02353*
X03542Y0237*
X03541Y02387*
X03536Y02404*
X03527Y02419*
X03517Y02432*
X03503Y02443*
X03488Y02451*
X03472Y02456*
X03455Y02458*
G37*
G36*
X0354Y02177D02*
X03523Y02175D01*
X03507Y0217*
X03492Y02162*
X03478Y02151*
X03468Y02138*
X03459Y02123*
X03454Y02107*
X03453Y0209*
X03454Y02073*
X03459Y02056*
X03468Y02041*
X03478Y02028*
X03492Y02017*
X03507Y02009*
X03523Y02004*
X0354Y02002*
X03557Y02004*
X03573Y02009*
X03589Y02017*
X03602Y02028*
X03613Y02041*
X03621Y02056*
X03626Y02073*
X03627Y0209*
X03626Y02107*
X03621Y02123*
X03613Y02138*
X03602Y02151*
X03589Y02162*
X03573Y0217*
X03557Y02175*
X0354Y02177*
G37*
%LNbatt_man_rev2-3*%
%LPD*%
G54D69*
X01389Y0151D02*
X0139Y01511D01*
Y0172*
X0248Y01395D02*
X02495Y0141D01*
Y0164*
G54D72*
X02455Y0069D03*
G54D73*
X02455Y0079D03*
Y0089D03*
Y0099D03*
Y0109D03*
Y0119D03*
G54D74*
X03495Y01625D03*
Y0192D03*
X0033Y0282D03*
Y02525D03*
X035Y02835D03*
Y0254D03*
X0284Y0284D03*
Y02545D03*
G54D75*
X0354Y01432D03*
Y0209D03*
X01692Y0164D03*
X0235D03*
X00285Y03013D03*
Y02355D03*
X03455Y03028D03*
Y0237D03*
X02795Y03033D03*
Y02375D03*
G54D76*
X01885Y01685D03*
X0218D03*
G54D77*
X03025Y01403D03*
Y01285D03*
X02907Y01403D03*
Y01285D03*
G54D78*
X02131Y0337D03*
G54D79*
X01719Y0337D03*
G54D80*
X00975Y02193D03*
Y01755D03*
G54D81*
X008Y03118D03*
X0119D03*
Y03252D03*
G54D82*
X008Y03252D03*
G54D83*
X0129Y0172D03*
X0134D03*
X0139D03*
X0144D03*
X0149D03*
X0129Y0177D03*
X0134D03*
X0139D03*
X0144D03*
G54D84*
X0149Y0177D03*
G54D85*
X00385Y01204D03*
X00641D03*
X00385Y01026D03*
X00641D03*
G54D86*
X00165Y0131D03*
Y0121D03*
Y0111D03*
X0299Y01085D03*
X0309D03*
X0319D03*
G54D87*
X00654Y01758D03*
Y0166D03*
Y01562D03*
G54D88*
X0015Y03345D03*
Y0061D03*
X03655Y03345D03*
Y0061D03*
G54D89*
X02565Y0203D03*
X03165D03*
G54D90*
X02075Y0291D03*
X01675D03*
G54D91*
X01525Y0231D03*
G54D92*
X01875Y0301D03*
G54D93*
X02225Y0241D03*
G54D94*
X0091Y0135D03*
X00912Y01111D03*
X00755Y00555D03*
X032Y0066D03*
X0297D03*
X01215Y0142D03*
X0118Y00845D03*
X01185Y01065D03*
X0227Y01485D03*
X01389Y0151D03*
X03055Y0177D03*
X00433Y01315D03*
X0306Y01555D03*
X0189Y01095D03*
X0188Y0131D03*
X01315Y01355D03*
X0153D03*
X0135Y00724D03*
X01555Y00727D03*
X01875Y00728D03*
X01645Y00724D03*
X02495Y0164D03*
X0248Y01395D03*
X02701Y01775D03*
X02568Y01505D03*
Y01815D03*
M02*