%FSTAX23Y23*%
%MOIN*%
%SFA1B1*%

%IPPOS*%
%ADD27C,0.060000*%
%ADD28R,0.061000X0.061000*%
%ADD29C,0.061000*%
%ADD30O,0.207000X0.060000*%
%ADD31C,0.144000*%
%ADD32O,0.060000X0.207000*%
%ADD33C,0.079000*%
%ADD34R,0.079000X0.079000*%
%ADD35C,0.081000*%
%ADD36C,0.083000*%
%ADD37R,0.083000X0.083000*%
%ADD38C,0.037000*%
%ADD39R,0.037000X0.037000*%
%ADD40C,0.059000*%
%ADD41C,0.065000*%
%ADD42C,0.049000*%
%ADD43C,0.240000*%
%ADD44C,0.075000*%
%ADD45C,0.065000*%
%ADD46C,0.121000*%
%ADD47C,0.117000*%
%ADD48R,0.117000X0.117000*%
%LNbatt_man_rev2_pads_bot-1*%
%LPD*%
G54D27*
X03569Y00921D03*
X03451D03*
X03569Y01039D03*
X03451D03*
X03025Y01403D03*
Y01285D03*
X02907Y01403D03*
Y01285D03*
G54D28*
X02455Y0069D03*
G54D29*
X02455Y0079D03*
Y0089D03*
Y0099D03*
Y0109D03*
Y0119D03*
G54D30*
X03495Y01625D03*
Y0192D03*
X0033Y0282D03*
Y02525D03*
X035Y02835D03*
Y0254D03*
X0284Y0284D03*
Y02545D03*
G54D31*
X0354Y01432D03*
Y0209D03*
X01692Y0164D03*
X0235D03*
X00285Y03013D03*
Y02355D03*
X03455Y03028D03*
Y0237D03*
X02795Y03033D03*
Y02375D03*
G54D32*
X01885Y01685D03*
X0218D03*
G54D33*
X02131Y0337D03*
G54D34*
X01719Y0337D03*
G54D35*
X00975Y02193D03*
Y01755D03*
G54D36*
X008Y03118D03*
X0119D03*
Y03252D03*
G54D37*
X008Y03252D03*
G54D38*
X0129Y0172D03*
X0134D03*
X0139D03*
X0144D03*
X0149D03*
X0129Y0177D03*
X0134D03*
X0139D03*
X0144D03*
G54D39*
X0149Y0177D03*
G54D40*
X00385Y01204D03*
X00641D03*
X00385Y01026D03*
X00641D03*
G54D41*
X00165Y0131D03*
Y0121D03*
Y0111D03*
X0299Y01085D03*
X0309D03*
X0319D03*
G54D42*
X00654Y01758D03*
Y0166D03*
Y01562D03*
G54D43*
X0015Y03345D03*
Y0061D03*
X03655Y03345D03*
Y0061D03*
G54D44*
X02565Y0203D03*
X03165D03*
G54D45*
X02075Y0291D03*
X01675D03*
G54D46*
X01525Y0231D03*
G54D47*
X01875Y0301D03*
G54D48*
X02225Y0241D03*
M02*