%FSTAX23Y23*%
%MOIN*%
%SFA1B1*%

%IPPOS*%
%ADD78C,0.005000*%
%ADD149C,0.007000*%
%ADD150C,0.004000*%
%LNbatt_man_rev2_drawing_1-1*%
%LPD*%
G54D78*
X03549Y00901D02*
Y00941D01*
X03589*
Y00901*
X03549*
X03431D02*
Y00941D01*
X03471*
Y00901*
X03431*
X03549Y01019D02*
Y01059D01*
X03589*
Y01019*
X03549*
X03431D02*
Y01059D01*
X03471*
Y01019*
X03431*
X02455Y0067D02*
X02435Y0071D01*
X02475*
X02455Y0067*
Y0077D02*
X02435Y0081D01*
X02475*
X02455Y0077*
Y0087D02*
X02435Y0091D01*
X02475*
X02455Y0087*
Y0097D02*
X02435Y0101D01*
X02475*
X02455Y0097*
Y0107D02*
X02435Y0111D01*
X02475*
X02455Y0107*
Y0117D02*
X02435Y0121D01*
X02475*
X02455Y0117*
X03495Y01605D02*
X03505Y01615D01*
X03515*
X03505Y01625*
X03515Y01635*
X03505*
X03495Y01645*
X03485Y01635*
X03475*
X03485Y01625*
X03475Y01615*
X03485*
X03495Y01605*
Y019D02*
X03505Y0191D01*
X03515*
X03505Y0192*
X03515Y0193*
X03505*
X03495Y0194*
X03485Y0193*
X03475*
X03485Y0192*
X03475Y0191*
X03485*
X03495Y019*
X0352Y01412D02*
X0353Y01432D01*
X0352Y01452*
X0354Y01442*
X0356Y01452*
X0355Y01432*
X0356Y01412*
X0354Y01422*
X0352Y01412*
Y0207D02*
X0353Y0209D01*
X0352Y0211*
X0354Y021*
X0356Y0211*
X0355Y0209*
X0356Y0207*
X0354Y0208*
X0352Y0207*
X01885Y01665D02*
X01895Y01675D01*
X01905*
X01895Y01685*
X01905Y01695*
X01895*
X01885Y01705*
X01875Y01695*
X01865*
X01875Y01685*
X01865Y01675*
X01875*
X01885Y01665*
X0218D02*
X0219Y01675D01*
X022*
X0219Y01685*
X022Y01695*
X0219*
X0218Y01705*
X0217Y01695*
X0216*
X0217Y01685*
X0216Y01675*
X0217*
X0218Y01665*
X01672Y0162D02*
X01682Y0164D01*
X01672Y0166*
X01692Y0165*
X01712Y0166*
X01702Y0164*
X01712Y0162*
X01692Y0163*
X01672Y0162*
X0233D02*
X0234Y0164D01*
X0233Y0166*
X0235Y0165*
X0237Y0166*
X0236Y0164*
X0237Y0162*
X0235Y0163*
X0233Y0162*
X03005Y01383D02*
Y01423D01*
X03045*
Y01383*
X03005*
Y01265D02*
Y01305D01*
X03045*
Y01265*
X03005*
X02887Y01383D02*
Y01423D01*
X02927*
Y01383*
X02887*
Y01265D02*
Y01305D01*
X02927*
Y01265*
X02887*
X02121Y0336D02*
Y0335D01*
X02141*
Y0336*
X02151*
Y0338*
X02141*
Y0339*
X02121*
Y0338*
X02111*
Y0336*
X02121*
X01709D02*
Y0335D01*
X01729*
Y0336*
X01739*
Y0338*
X01729*
Y0339*
X01709*
Y0338*
X01699*
Y0336*
X01709*
X00955Y02173D02*
X00965D01*
X00975Y02183*
X00985Y02173*
X00995*
Y02183*
X00985Y02193*
X00995Y02203*
Y02213*
X00985*
X00975Y02203*
X00965Y02213*
X00955*
Y02203*
X00965Y02193*
X00955Y02183*
Y02173*
Y01735D02*
X00965D01*
X00975Y01745*
X00985Y01735*
X00995*
Y01745*
X00985Y01755*
X00995Y01765*
Y01775*
X00985*
X00975Y01765*
X00965Y01775*
X00955*
Y01765*
X00965Y01755*
X00955Y01745*
Y01735*
X0078Y03118D02*
X008Y03138D01*
X0082Y03118*
X008Y03098*
X0078Y03118*
X0117D02*
X0119Y03138D01*
X0121Y03118*
X0119Y03098*
X0117Y03118*
Y03252D02*
X0119Y03272D01*
X0121Y03252*
X0119Y03232*
X0117Y03252*
X0078D02*
X008Y03272D01*
X0082Y03252*
X008Y03232*
X0078Y03252*
X0033Y028D02*
X0034Y0281D01*
X0035*
X0034Y0282*
X0035Y0283*
X0034*
X0033Y0284*
X0032Y0283*
X0031*
X0032Y0282*
X0031Y0281*
X0032*
X0033Y028*
Y02505D02*
X0034Y02515D01*
X0035*
X0034Y02525*
X0035Y02535*
X0034*
X0033Y02545*
X0032Y02535*
X0031*
X0032Y02525*
X0031Y02515*
X0032*
X0033Y02505*
X00265Y02993D02*
X00275Y03013D01*
X00265Y03033*
X00285Y03023*
X00305Y03033*
X00295Y03013*
X00305Y02993*
X00285Y03003*
X00265Y02993*
Y02335D02*
X00275Y02355D01*
X00265Y02375*
X00285Y02365*
X00305Y02375*
X00295Y02355*
X00305Y02335*
X00285Y02345*
X00265Y02335*
X035Y02815D02*
X0351Y02825D01*
X0352*
X0351Y02835*
X0352Y02845*
X0351*
X035Y02855*
X0349Y02845*
X0348*
X0349Y02835*
X0348Y02825*
X0349*
X035Y02815*
Y0252D02*
X0351Y0253D01*
X0352*
X0351Y0254*
X0352Y0255*
X0351*
X035Y0256*
X0349Y0255*
X0348*
X0349Y0254*
X0348Y0253*
X0349*
X035Y0252*
X03435Y03008D02*
X03445Y03028D01*
X03435Y03048*
X03455Y03038*
X03475Y03048*
X03465Y03028*
X03475Y03008*
X03455Y03018*
X03435Y03008*
Y0235D02*
X03445Y0237D01*
X03435Y0239*
X03455Y0238*
X03475Y0239*
X03465Y0237*
X03475Y0235*
X03455Y0236*
X03435Y0235*
X0284Y0282D02*
X0285Y0283D01*
X0286*
X0285Y0284*
X0286Y0285*
X0285*
X0284Y0286*
X0283Y0285*
X0282*
X0283Y0284*
X0282Y0283*
X0283*
X0284Y0282*
Y02525D02*
X0285Y02535D01*
X0286*
X0285Y02545*
X0286Y02555*
X0285*
X0284Y02565*
X0283Y02555*
X0282*
X0283Y02545*
X0282Y02535*
X0283*
X0284Y02525*
X02775Y03013D02*
X02785Y03033D01*
X02775Y03053*
X02795Y03043*
X02815Y03053*
X02805Y03033*
X02815Y03013*
X02795Y03023*
X02775Y03013*
Y02355D02*
X02785Y02375D01*
X02775Y02395*
X02795Y02385*
X02815Y02395*
X02805Y02375*
X02815Y02355*
X02795Y02365*
X02775Y02355*
X0127Y017D02*
Y0174D01*
X0131*
Y017*
X0127*
X01278Y01708D02*
Y01732D01*
X01302*
Y01708*
X01278*
X0132Y017D02*
Y0174D01*
X0136*
Y017*
X0132*
X01328Y01708D02*
Y01732D01*
X01352*
Y01708*
X01328*
X0137Y017D02*
Y0174D01*
X0141*
Y017*
X0137*
X01378Y01708D02*
Y01732D01*
X01402*
Y01708*
X01378*
X0142Y017D02*
Y0174D01*
X0146*
Y017*
X0142*
X01428Y01708D02*
Y01732D01*
X01452*
Y01708*
X01428*
X0147Y017D02*
Y0174D01*
X0151*
Y017*
X0147*
X01478Y01708D02*
Y01732D01*
X01502*
Y01708*
X01478*
X0127Y0175D02*
Y0179D01*
X0131*
Y0175*
X0127*
X01278Y01758D02*
Y01782D01*
X01302*
Y01758*
X01278*
X0132Y0175D02*
Y0179D01*
X0136*
Y0175*
X0132*
X01328Y01758D02*
Y01782D01*
X01352*
Y01758*
X01328*
X0137Y0175D02*
Y0179D01*
X0141*
Y0175*
X0137*
X01378Y01758D02*
Y01782D01*
X01402*
Y01758*
X01378*
X0142Y0175D02*
Y0179D01*
X0146*
Y0175*
X0142*
X01428Y01758D02*
Y01782D01*
X01452*
Y01758*
X01428*
X0147Y0175D02*
Y0179D01*
X0151*
Y0175*
X0147*
X01478Y01758D02*
Y01782D01*
X01502*
Y01758*
X01478*
X00165Y0129D02*
X00145Y0133D01*
X00185*
X00165Y0129*
Y01298D02*
X00153Y01322D01*
X00177*
X00165Y01298*
Y0119D02*
X00145Y0123D01*
X00185*
X00165Y0119*
Y01198D02*
X00153Y01222D01*
X00177*
X00165Y01198*
Y0109D02*
X00145Y0113D01*
X00185*
X00165Y0109*
Y01098D02*
X00153Y01122D01*
X00177*
X00165Y01098*
X00654Y01738D02*
X00664Y01748D01*
X00674*
X00664Y01758*
X00674Y01768*
X00664*
X00654Y01778*
X00644Y01768*
X00634*
X00644Y01758*
X00634Y01748*
X00644*
X00654Y01738*
Y01746D02*
X0066Y01752D01*
X00666*
X0066Y01758*
X00666Y01764*
X0066*
X00654Y0177*
X00648Y01764*
X00642*
X00648Y01758*
X00642Y01752*
X00648*
X00654Y01746*
Y0164D02*
X00664Y0165D01*
X00674*
X00664Y0166*
X00674Y0167*
X00664*
X00654Y0168*
X00644Y0167*
X00634*
X00644Y0166*
X00634Y0165*
X00644*
X00654Y0164*
Y01648D02*
X0066Y01654D01*
X00666*
X0066Y0166*
X00666Y01666*
X0066*
X00654Y01672*
X00648Y01666*
X00642*
X00648Y0166*
X00642Y01654*
X00648*
X00654Y01648*
Y01542D02*
X00664Y01552D01*
X00674*
X00664Y01562*
X00674Y01572*
X00664*
X00654Y01582*
X00644Y01572*
X00634*
X00644Y01562*
X00634Y01552*
X00644*
X00654Y01542*
Y0155D02*
X0066Y01556D01*
X00666*
X0066Y01562*
X00666Y01568*
X0066*
X00654Y01574*
X00648Y01568*
X00642*
X00648Y01562*
X00642Y01556*
X00648*
X00654Y0155*
X0013Y03325D02*
X0014Y03345D01*
X0013Y03365*
X0015Y03355*
X0017Y03365*
X0016Y03345*
X0017Y03325*
X0015Y03335*
X0013Y03325*
X00138Y03333D02*
X00144Y03345D01*
X00138Y03357*
X0015Y03351*
X00162Y03357*
X00156Y03345*
X00162Y03333*
X0015Y03339*
X00138Y03333*
X0013Y0059D02*
X0014Y0061D01*
X0013Y0063*
X0015Y0062*
X0017Y0063*
X0016Y0061*
X0017Y0059*
X0015Y006*
X0013Y0059*
X00138Y00598D02*
X00144Y0061D01*
X00138Y00622*
X0015Y00616*
X00162Y00622*
X00156Y0061*
X00162Y00598*
X0015Y00604*
X00138Y00598*
X03635Y03325D02*
X03645Y03345D01*
X03635Y03365*
X03655Y03355*
X03675Y03365*
X03665Y03345*
X03675Y03325*
X03655Y03335*
X03635Y03325*
X03643Y03333D02*
X03649Y03345D01*
X03643Y03357*
X03655Y03351*
X03667Y03357*
X03661Y03345*
X03667Y03333*
X03655Y03339*
X03643Y03333*
X03635Y0059D02*
X03645Y0061D01*
X03635Y0063*
X03655Y0062*
X03675Y0063*
X03665Y0061*
X03675Y0059*
X03655Y006*
X03635Y0059*
X03643Y00598D02*
X03649Y0061D01*
X03643Y00622*
X03655Y00616*
X03667Y00622*
X03661Y0061*
X03667Y00598*
X03655Y00604*
X03643Y00598*
X02555Y0202D02*
Y0201D01*
X02575*
Y0202*
X02585*
Y0204*
X02575*
Y0205*
X02555*
Y0204*
X02545*
Y0202*
X02555*
X02559Y02024D02*
Y02018D01*
X02571*
Y02024*
X02577*
Y02036*
X02571*
Y02042*
X02559*
Y02036*
X02553*
Y02024*
X02559*
X03155Y0202D02*
Y0201D01*
X03175*
Y0202*
X03185*
Y0204*
X03175*
Y0205*
X03155*
Y0204*
X03145*
Y0202*
X03155*
X03159Y02024D02*
Y02018D01*
X03171*
Y02024*
X03177*
Y02036*
X03171*
Y02042*
X03159*
Y02036*
X03153*
Y02024*
X03159*
X02055Y0289D02*
X02065D01*
X02075Y029*
X02085Y0289*
X02095*
Y029*
X02085Y0291*
X02095Y0292*
Y0293*
X02085*
X02075Y0292*
X02065Y0293*
X02055*
Y0292*
X02065Y0291*
X02055Y029*
Y0289*
X02063Y02898D02*
X02069D01*
X02075Y02904*
X02081Y02898*
X02087*
Y02904*
X02081Y0291*
X02087Y02916*
Y02922*
X02081*
X02075Y02916*
X02069Y02922*
X02063*
Y02916*
X02069Y0291*
X02063Y02904*
Y02898*
X01655Y0289D02*
X01665D01*
X01675Y029*
X01685Y0289*
X01695*
Y029*
X01685Y0291*
X01695Y0292*
Y0293*
X01685*
X01675Y0292*
X01665Y0293*
X01655*
Y0292*
X01665Y0291*
X01655Y029*
Y0289*
X01663Y02898D02*
X01669D01*
X01675Y02904*
X01681Y02898*
X01687*
Y02904*
X01681Y0291*
X01687Y02916*
Y02922*
X01681*
X01675Y02916*
X01669Y02922*
X01663*
Y02916*
X01669Y0291*
X01663Y02904*
Y02898*
X01525Y0231D02*
Y02343D01*
X01542Y0236*
X01558Y02343*
Y0231*
Y02335*
X01525*
X01875Y0306D02*
Y0301D01*
X019*
X01908Y03018*
Y03027*
X019Y03035*
X01875*
X019*
X01908Y03043*
Y03052*
X019Y0306*
X01875*
X02225Y0246D02*
Y0241D01*
X0225*
X02258Y02418*
Y02427*
X0225Y02435*
X02225*
X0225*
X02258Y02443*
Y02452*
X0225Y0246*
X02225*
X0299Y01065D02*
X0297Y01105D01*
X0301*
X0299Y01065*
Y01073D02*
X02978Y01097D01*
X03002*
X0299Y01073*
X0309Y01065D02*
X0307Y01105D01*
X0311*
X0309Y01065*
Y01073D02*
X03078Y01097D01*
X03102*
X0309Y01073*
X0319Y01065D02*
X0317Y01105D01*
X0321*
X0319Y01065*
Y01073D02*
X03178Y01097D01*
X03202*
X0319Y01073*
X00943Y01392D02*
X00935Y014D01*
X00918*
X0091Y01392*
Y01358*
X00918Y0135*
X00935*
X00943Y01358*
X00946Y01153D02*
X00937Y01161D01*
X00921*
X00912Y01153*
Y01119*
X00921Y01111*
X00937*
X00946Y01119*
X00788Y00597D02*
X0078Y00605D01*
X00763*
X00755Y00597*
Y00563*
X00763Y00555*
X0078*
X00788Y00563*
X03233Y00702D02*
X03225Y0071D01*
X03208*
X032Y00702*
Y00668*
X03208Y0066*
X03225*
X03233Y00668*
X03003Y00702D02*
X02995Y0071D01*
X02978*
X0297Y00702*
Y00668*
X02978Y0066*
X02995*
X03003Y00668*
X01248Y01462D02*
X0124Y0147D01*
X01223*
X01215Y01462*
Y01428*
X01223Y0142*
X0124*
X01248Y01428*
X01213Y00887D02*
X01205Y00895D01*
X01188*
X0118Y00887*
Y00853*
X01188Y00845*
X01205*
X01213Y00853*
X01218Y01107D02*
X0121Y01115D01*
X01193*
X01185Y01107*
Y01073*
X01193Y01065*
X0121*
X01218Y01073*
X02303Y01527D02*
X02295Y01535D01*
X02278*
X0227Y01527*
Y01493*
X02278Y01485*
X02295*
X02303Y01493*
X01423Y01552D02*
X01414Y0156D01*
X01398*
X01389Y01552*
Y01518*
X01398Y0151*
X01414*
X01423Y01518*
X03088Y01812D02*
X0308Y0182D01*
X03063*
X03055Y01812*
Y01778*
X03063Y0177*
X0308*
X03088Y01778*
X00466Y01357D02*
X00458Y01365D01*
X00441*
X00433Y01357*
Y01324*
X00441Y01315*
X00458*
X00466Y01324*
X03093Y01597D02*
X03085Y01605D01*
X03068*
X0306Y01597*
Y01563*
X03068Y01555*
X03085*
X03093Y01563*
X01923Y01137D02*
X01915Y01145D01*
X01898*
X0189Y01137*
Y01103*
X01898Y01095*
X01915*
X01923Y01103*
X01913Y01352D02*
X01905Y0136D01*
X01888*
X0188Y01352*
Y01318*
X01888Y0131*
X01905*
X01913Y01318*
X01348Y01397D02*
X0134Y01405D01*
X01323*
X01315Y01397*
Y01363*
X01323Y01355*
X0134*
X01348Y01363*
X01563Y01397D02*
X01555Y01405D01*
X01538*
X0153Y01397*
Y01363*
X01538Y01355*
X01555*
X01563Y01363*
X01383Y00766D02*
X01375Y00774D01*
X01358*
X0135Y00766*
Y00733*
X01358Y00724*
X01375*
X01383Y00733*
X01588Y00768D02*
X0158Y00777D01*
X01563*
X01555Y00768*
Y00735*
X01563Y00727*
X0158*
X01588Y00735*
X01908Y0077D02*
X019Y00778D01*
X01883*
X01875Y0077*
Y00737*
X01883Y00728*
X019*
X01908Y00737*
X01678Y00766D02*
X0167Y00774D01*
X01653*
X01645Y00766*
Y00732*
X01653Y00724*
X0167*
X01678Y00732*
X02528Y01682D02*
X0252Y0169D01*
X02503*
X02495Y01682*
Y01648*
X02503Y0164*
X0252*
X02528Y01648*
X02513Y01437D02*
X02505Y01445D01*
X02488*
X0248Y01437*
Y01403*
X02488Y01395*
X02505*
X02513Y01403*
X02734Y01817D02*
X02726Y01825D01*
X02709*
X02701Y01817*
Y01783*
X02709Y01775*
X02726*
X02734Y01783*
X02601Y01547D02*
X02593Y01555D01*
X02576*
X02568Y01547*
Y01513*
X02576Y01505*
X02593*
X02601Y01513*
Y01857D02*
X02593Y01865D01*
X02576*
X02568Y01857*
Y01823*
X02576Y01815*
X02593*
X02601Y01823*
G54D149*
X03626Y00803D02*
D01*
X03625Y00804*
X03625Y00805*
X03625Y00807*
X03625Y00808*
X03624Y00809*
X03624Y00811*
X03623Y00812*
X03622Y00813*
X03622Y00814*
X03621Y00815*
X0362Y00816*
X03619Y00817*
X03618Y00818*
X03617Y00819*
X03616Y0082*
X03614Y0082*
X03613Y00821*
X03612Y00822*
X0361Y00822*
X03609Y00822*
X03608Y00822*
X03606Y00822*
X03605*
X03603Y00822*
X03602Y00822*
X03601Y00822*
X03599Y00822*
X03598Y00821*
X03597Y0082*
X03596Y0082*
X03594Y00819*
X03593Y00818*
X03592Y00817*
X03591Y00816*
X0359Y00815*
X03589Y00814*
X03589Y00813*
X03588Y00812*
X03587Y00811*
X03587Y00809*
X03586Y00808*
X03586Y00807*
X03586Y00805*
X03586Y00804*
X03586Y00803*
X03586Y00801*
X03586Y008*
X03586Y00798*
X03586Y00797*
X03587Y00796*
X03587Y00794*
X03588Y00793*
X03589Y00792*
X03589Y00791*
X0359Y0079*
X03591Y00789*
X03592Y00788*
X03593Y00787*
X03594Y00786*
X03596Y00785*
X03597Y00785*
X03598Y00784*
X03599Y00783*
X03601Y00783*
X03602Y00783*
X03603Y00783*
X03605Y00783*
X03606*
X03608Y00783*
X03609Y00783*
X0361Y00783*
X03612Y00783*
X03613Y00784*
X03614Y00785*
X03616Y00785*
X03617Y00786*
X03618Y00787*
X03619Y00788*
X0362Y00789*
X03621Y0079*
X03622Y00791*
X03622Y00792*
X03623Y00793*
X03624Y00794*
X03624Y00796*
X03625Y00797*
X03625Y00798*
X03625Y008*
X03625Y00801*
X03626Y00803*
Y01157D02*
D01*
X03625Y01158*
X03625Y01159*
X03625Y01161*
X03625Y01162*
X03624Y01163*
X03624Y01165*
X03623Y01166*
X03622Y01167*
X03622Y01168*
X03621Y01169*
X0362Y0117*
X03619Y01171*
X03618Y01172*
X03617Y01173*
X03616Y01174*
X03614Y01174*
X03613Y01175*
X03612Y01176*
X0361Y01176*
X03609Y01176*
X03608Y01176*
X03606Y01176*
X03605*
X03603Y01176*
X03602Y01176*
X03601Y01176*
X03599Y01176*
X03598Y01175*
X03597Y01174*
X03596Y01174*
X03594Y01173*
X03593Y01172*
X03592Y01171*
X03591Y0117*
X0359Y01169*
X03589Y01168*
X03589Y01167*
X03588Y01166*
X03587Y01165*
X03587Y01163*
X03586Y01162*
X03586Y01161*
X03586Y01159*
X03586Y01158*
X03586Y01157*
X03586Y01155*
X03586Y01154*
X03586Y01152*
X03586Y01151*
X03587Y0115*
X03587Y01148*
X03588Y01147*
X03589Y01146*
X03589Y01145*
X0359Y01144*
X03591Y01143*
X03592Y01142*
X03593Y01141*
X03594Y0114*
X03596Y01139*
X03597Y01139*
X03598Y01138*
X03599Y01137*
X03601Y01137*
X03602Y01137*
X03603Y01137*
X03605Y01137*
X03606*
X03608Y01137*
X03609Y01137*
X0361Y01137*
X03612Y01137*
X03613Y01138*
X03614Y01139*
X03616Y01139*
X03617Y0114*
X03618Y01141*
X03619Y01142*
X0362Y01143*
X03621Y01144*
X03622Y01145*
X03622Y01146*
X03623Y01147*
X03624Y01148*
X03624Y0115*
X03625Y01151*
X03625Y01152*
X03625Y01154*
X03625Y01155*
X03626Y01157*
X03163Y0144D02*
D01*
X03162Y01441*
X03162Y01442*
X03162Y01444*
X03162Y01445*
X03161Y01446*
X03161Y01448*
X0316Y01449*
X03159Y0145*
X03159Y01451*
X03158Y01452*
X03157Y01453*
X03156Y01454*
X03155Y01455*
X03154Y01456*
X03153Y01457*
X03151Y01457*
X0315Y01458*
X03149Y01459*
X03147Y01459*
X03146Y01459*
X03145Y01459*
X03143Y01459*
X03142*
X0314Y01459*
X03139Y01459*
X03138Y01459*
X03136Y01459*
X03135Y01458*
X03134Y01457*
X03133Y01457*
X03131Y01456*
X0313Y01455*
X03129Y01454*
X03128Y01453*
X03127Y01452*
X03126Y01451*
X03126Y0145*
X03125Y01449*
X03124Y01448*
X03124Y01446*
X03123Y01445*
X03123Y01444*
X03123Y01442*
X03123Y01441*
X03123Y0144*
X03123Y01438*
X03123Y01437*
X03123Y01435*
X03123Y01434*
X03124Y01433*
X03124Y01431*
X03125Y0143*
X03126Y01429*
X03126Y01428*
X03127Y01427*
X03128Y01426*
X03129Y01425*
X0313Y01424*
X03131Y01423*
X03133Y01422*
X03134Y01422*
X03135Y01421*
X03136Y0142*
X03138Y0142*
X03139Y0142*
X0314Y0142*
X03142Y0142*
X03143*
X03145Y0142*
X03146Y0142*
X03147Y0142*
X03149Y0142*
X0315Y01421*
X03151Y01422*
X03153Y01422*
X03154Y01423*
X03155Y01424*
X03156Y01425*
X03157Y01426*
X03158Y01427*
X03159Y01428*
X03159Y01429*
X0316Y0143*
X03161Y01431*
X03161Y01433*
X03162Y01434*
X03162Y01435*
X03162Y01437*
X03162Y01438*
X03163Y0144*
X02809D02*
D01*
X02808Y01441*
X02808Y01442*
X02808Y01444*
X02808Y01445*
X02807Y01446*
X02807Y01448*
X02806Y01449*
X02805Y0145*
X02805Y01451*
X02804Y01452*
X02803Y01453*
X02802Y01454*
X02801Y01455*
X028Y01456*
X02799Y01457*
X02797Y01457*
X02796Y01458*
X02795Y01459*
X02793Y01459*
X02792Y01459*
X02791Y01459*
X02789Y01459*
X02788*
X02786Y01459*
X02785Y01459*
X02784Y01459*
X02782Y01459*
X02781Y01458*
X0278Y01457*
X02779Y01457*
X02777Y01456*
X02776Y01455*
X02775Y01454*
X02774Y01453*
X02773Y01452*
X02772Y01451*
X02772Y0145*
X02771Y01449*
X0277Y01448*
X0277Y01446*
X02769Y01445*
X02769Y01444*
X02769Y01442*
X02769Y01441*
X02769Y0144*
X02769Y01438*
X02769Y01437*
X02769Y01435*
X02769Y01434*
X0277Y01433*
X0277Y01431*
X02771Y0143*
X02772Y01429*
X02772Y01428*
X02773Y01427*
X02774Y01426*
X02775Y01425*
X02776Y01424*
X02777Y01423*
X02779Y01422*
X0278Y01422*
X02781Y01421*
X02782Y0142*
X02784Y0142*
X02785Y0142*
X02786Y0142*
X02788Y0142*
X02789*
X02791Y0142*
X02792Y0142*
X02793Y0142*
X02795Y0142*
X02796Y01421*
X02797Y01422*
X02799Y01422*
X028Y01423*
X02801Y01424*
X02802Y01425*
X02803Y01426*
X02804Y01427*
X02805Y01428*
X02805Y01429*
X02806Y0143*
X02807Y01431*
X02807Y01433*
X02808Y01434*
X02808Y01435*
X02808Y01437*
X02808Y01438*
X02809Y0144*
X00405Y01204D02*
D01*
X00404Y01205*
X00404Y01206*
X00404Y01208*
X00404Y01209*
X00403Y0121*
X00403Y01212*
X00402Y01213*
X00401Y01214*
X00401Y01215*
X004Y01216*
X00399Y01217*
X00398Y01218*
X00397Y01219*
X00396Y0122*
X00395Y01221*
X00393Y01221*
X00392Y01222*
X00391Y01223*
X00389Y01223*
X00388Y01223*
X00387Y01223*
X00385Y01223*
X00384*
X00382Y01223*
X00381Y01223*
X0038Y01223*
X00378Y01223*
X00377Y01222*
X00376Y01221*
X00375Y01221*
X00373Y0122*
X00372Y01219*
X00371Y01218*
X0037Y01217*
X00369Y01216*
X00368Y01215*
X00368Y01214*
X00367Y01213*
X00366Y01212*
X00366Y0121*
X00365Y01209*
X00365Y01208*
X00365Y01206*
X00365Y01205*
X00365Y01204*
X00365Y01202*
X00365Y01201*
X00365Y01199*
X00365Y01198*
X00366Y01197*
X00366Y01195*
X00367Y01194*
X00368Y01193*
X00368Y01192*
X00369Y01191*
X0037Y0119*
X00371Y01189*
X00372Y01188*
X00373Y01187*
X00375Y01186*
X00376Y01186*
X00377Y01185*
X00378Y01184*
X0038Y01184*
X00381Y01184*
X00382Y01184*
X00384Y01184*
X00385*
X00387Y01184*
X00388Y01184*
X00389Y01184*
X00391Y01184*
X00392Y01185*
X00393Y01186*
X00395Y01186*
X00396Y01187*
X00397Y01188*
X00398Y01189*
X00399Y0119*
X004Y01191*
X00401Y01192*
X00401Y01193*
X00402Y01194*
X00403Y01195*
X00403Y01197*
X00404Y01198*
X00404Y01199*
X00404Y01201*
X00404Y01202*
X00405Y01204*
X00661D02*
D01*
X0066Y01205*
X0066Y01206*
X0066Y01208*
X0066Y01209*
X00659Y0121*
X00659Y01212*
X00658Y01213*
X00657Y01214*
X00657Y01215*
X00656Y01216*
X00655Y01217*
X00654Y01218*
X00653Y01219*
X00652Y0122*
X00651Y01221*
X00649Y01221*
X00648Y01222*
X00647Y01223*
X00645Y01223*
X00644Y01223*
X00643Y01223*
X00641Y01223*
X0064*
X00638Y01223*
X00637Y01223*
X00636Y01223*
X00634Y01223*
X00633Y01222*
X00632Y01221*
X00631Y01221*
X00629Y0122*
X00628Y01219*
X00627Y01218*
X00626Y01217*
X00625Y01216*
X00624Y01215*
X00624Y01214*
X00623Y01213*
X00622Y01212*
X00622Y0121*
X00621Y01209*
X00621Y01208*
X00621Y01206*
X00621Y01205*
X00621Y01204*
X00621Y01202*
X00621Y01201*
X00621Y01199*
X00621Y01198*
X00622Y01197*
X00622Y01195*
X00623Y01194*
X00624Y01193*
X00624Y01192*
X00625Y01191*
X00626Y0119*
X00627Y01189*
X00628Y01188*
X00629Y01187*
X00631Y01186*
X00632Y01186*
X00633Y01185*
X00634Y01184*
X00636Y01184*
X00637Y01184*
X00638Y01184*
X0064Y01184*
X00641*
X00643Y01184*
X00644Y01184*
X00645Y01184*
X00647Y01184*
X00648Y01185*
X00649Y01186*
X00651Y01186*
X00652Y01187*
X00653Y01188*
X00654Y01189*
X00655Y0119*
X00656Y01191*
X00657Y01192*
X00657Y01193*
X00658Y01194*
X00659Y01195*
X00659Y01197*
X0066Y01198*
X0066Y01199*
X0066Y01201*
X0066Y01202*
X00661Y01204*
X00405Y01026D02*
D01*
X00404Y01027*
X00404Y01028*
X00404Y0103*
X00404Y01031*
X00403Y01032*
X00403Y01034*
X00402Y01035*
X00401Y01036*
X00401Y01037*
X004Y01038*
X00399Y01039*
X00398Y0104*
X00397Y01041*
X00396Y01042*
X00395Y01043*
X00393Y01043*
X00392Y01044*
X00391Y01045*
X00389Y01045*
X00388Y01045*
X00387Y01045*
X00385Y01045*
X00384*
X00382Y01045*
X00381Y01045*
X0038Y01045*
X00378Y01045*
X00377Y01044*
X00376Y01043*
X00375Y01043*
X00373Y01042*
X00372Y01041*
X00371Y0104*
X0037Y01039*
X00369Y01038*
X00368Y01037*
X00368Y01036*
X00367Y01035*
X00366Y01034*
X00366Y01032*
X00365Y01031*
X00365Y0103*
X00365Y01028*
X00365Y01027*
X00365Y01026*
X00365Y01024*
X00365Y01023*
X00365Y01021*
X00365Y0102*
X00366Y01019*
X00366Y01017*
X00367Y01016*
X00368Y01015*
X00368Y01014*
X00369Y01013*
X0037Y01012*
X00371Y01011*
X00372Y0101*
X00373Y01009*
X00375Y01008*
X00376Y01008*
X00377Y01007*
X00378Y01006*
X0038Y01006*
X00381Y01006*
X00382Y01006*
X00384Y01006*
X00385*
X00387Y01006*
X00388Y01006*
X00389Y01006*
X00391Y01006*
X00392Y01007*
X00393Y01008*
X00395Y01008*
X00396Y01009*
X00397Y0101*
X00398Y01011*
X00399Y01012*
X004Y01013*
X00401Y01014*
X00401Y01015*
X00402Y01016*
X00403Y01017*
X00403Y01019*
X00404Y0102*
X00404Y01021*
X00404Y01023*
X00404Y01024*
X00405Y01026*
X00661D02*
D01*
X0066Y01027*
X0066Y01028*
X0066Y0103*
X0066Y01031*
X00659Y01032*
X00659Y01034*
X00658Y01035*
X00657Y01036*
X00657Y01037*
X00656Y01038*
X00655Y01039*
X00654Y0104*
X00653Y01041*
X00652Y01042*
X00651Y01043*
X00649Y01043*
X00648Y01044*
X00647Y01045*
X00645Y01045*
X00644Y01045*
X00643Y01045*
X00641Y01045*
X0064*
X00638Y01045*
X00637Y01045*
X00636Y01045*
X00634Y01045*
X00633Y01044*
X00632Y01043*
X00631Y01043*
X00629Y01042*
X00628Y01041*
X00627Y0104*
X00626Y01039*
X00625Y01038*
X00624Y01037*
X00624Y01036*
X00623Y01035*
X00622Y01034*
X00622Y01032*
X00621Y01031*
X00621Y0103*
X00621Y01028*
X00621Y01027*
X00621Y01026*
X00621Y01024*
X00621Y01023*
X00621Y01021*
X00621Y0102*
X00622Y01019*
X00622Y01017*
X00623Y01016*
X00624Y01015*
X00624Y01014*
X00625Y01013*
X00626Y01012*
X00627Y01011*
X00628Y0101*
X00629Y01009*
X00631Y01008*
X00632Y01008*
X00633Y01007*
X00634Y01006*
X00636Y01006*
X00637Y01006*
X00638Y01006*
X0064Y01006*
X00641*
X00643Y01006*
X00644Y01006*
X00645Y01006*
X00647Y01006*
X00648Y01007*
X00649Y01008*
X00651Y01008*
X00652Y01009*
X00653Y0101*
X00654Y01011*
X00655Y01012*
X00656Y01013*
X00657Y01014*
X00657Y01015*
X00658Y01016*
X00659Y01017*
X00659Y01019*
X0066Y0102*
X0066Y01021*
X0066Y01023*
X0066Y01024*
X00661Y01026*
G54D150*
X00397Y01204D02*
D01*
X00396Y01204*
X00396Y01205*
X00396Y01206*
X00396Y01207*
X00396Y01208*
X00395Y01208*
X00395Y01209*
X00395Y0121*
X00394Y01211*
X00394Y01211*
X00393Y01212*
X00393Y01212*
X00392Y01213*
X00391Y01213*
X00391Y01214*
X0039Y01214*
X00389Y01215*
X00388Y01215*
X00387Y01215*
X00387Y01215*
X00386Y01215*
X00385Y01215*
X00384*
X00383Y01215*
X00382Y01215*
X00382Y01215*
X00381Y01215*
X0038Y01215*
X00379Y01214*
X00379Y01214*
X00378Y01213*
X00377Y01213*
X00376Y01212*
X00376Y01212*
X00375Y01211*
X00375Y01211*
X00374Y0121*
X00374Y01209*
X00374Y01208*
X00373Y01208*
X00373Y01207*
X00373Y01206*
X00373Y01205*
X00373Y01204*
X00373Y01204*
X00373Y01203*
X00373Y01202*
X00373Y01201*
X00373Y012*
X00373Y01199*
X00374Y01199*
X00374Y01198*
X00374Y01197*
X00375Y01196*
X00375Y01196*
X00376Y01195*
X00376Y01195*
X00377Y01194*
X00378Y01194*
X00379Y01193*
X00379Y01193*
X0038Y01192*
X00381Y01192*
X00382Y01192*
X00382Y01192*
X00383Y01192*
X00384Y01192*
X00385*
X00386Y01192*
X00387Y01192*
X00387Y01192*
X00388Y01192*
X00389Y01192*
X0039Y01193*
X00391Y01193*
X00391Y01194*
X00392Y01194*
X00393Y01195*
X00393Y01195*
X00394Y01196*
X00394Y01196*
X00395Y01197*
X00395Y01198*
X00395Y01199*
X00396Y01199*
X00396Y012*
X00396Y01201*
X00396Y01202*
X00396Y01203*
X00397Y01204*
X00653D02*
D01*
X00652Y01204*
X00652Y01205*
X00652Y01206*
X00652Y01207*
X00652Y01208*
X00651Y01208*
X00651Y01209*
X00651Y0121*
X0065Y01211*
X0065Y01211*
X00649Y01212*
X00649Y01212*
X00648Y01213*
X00647Y01213*
X00647Y01214*
X00646Y01214*
X00645Y01215*
X00644Y01215*
X00643Y01215*
X00643Y01215*
X00642Y01215*
X00641Y01215*
X0064*
X00639Y01215*
X00638Y01215*
X00638Y01215*
X00637Y01215*
X00636Y01215*
X00635Y01214*
X00635Y01214*
X00634Y01213*
X00633Y01213*
X00632Y01212*
X00632Y01212*
X00631Y01211*
X00631Y01211*
X0063Y0121*
X0063Y01209*
X0063Y01208*
X00629Y01208*
X00629Y01207*
X00629Y01206*
X00629Y01205*
X00629Y01204*
X00629Y01204*
X00629Y01203*
X00629Y01202*
X00629Y01201*
X00629Y012*
X00629Y01199*
X0063Y01199*
X0063Y01198*
X0063Y01197*
X00631Y01196*
X00631Y01196*
X00632Y01195*
X00632Y01195*
X00633Y01194*
X00634Y01194*
X00635Y01193*
X00635Y01193*
X00636Y01192*
X00637Y01192*
X00638Y01192*
X00638Y01192*
X00639Y01192*
X0064Y01192*
X00641*
X00642Y01192*
X00643Y01192*
X00643Y01192*
X00644Y01192*
X00645Y01192*
X00646Y01193*
X00647Y01193*
X00647Y01194*
X00648Y01194*
X00649Y01195*
X00649Y01195*
X0065Y01196*
X0065Y01196*
X00651Y01197*
X00651Y01198*
X00651Y01199*
X00652Y01199*
X00652Y012*
X00652Y01201*
X00652Y01202*
X00652Y01203*
X00653Y01204*
X00397Y01026D02*
D01*
X00396Y01026*
X00396Y01027*
X00396Y01028*
X00396Y01029*
X00396Y0103*
X00395Y0103*
X00395Y01031*
X00395Y01032*
X00394Y01033*
X00394Y01033*
X00393Y01034*
X00393Y01034*
X00392Y01035*
X00391Y01035*
X00391Y01036*
X0039Y01036*
X00389Y01037*
X00388Y01037*
X00387Y01037*
X00387Y01037*
X00386Y01037*
X00385Y01037*
X00384*
X00383Y01037*
X00382Y01037*
X00382Y01037*
X00381Y01037*
X0038Y01037*
X00379Y01036*
X00379Y01036*
X00378Y01035*
X00377Y01035*
X00376Y01034*
X00376Y01034*
X00375Y01033*
X00375Y01033*
X00374Y01032*
X00374Y01031*
X00374Y0103*
X00373Y0103*
X00373Y01029*
X00373Y01028*
X00373Y01027*
X00373Y01026*
X00373Y01026*
X00373Y01025*
X00373Y01024*
X00373Y01023*
X00373Y01022*
X00373Y01021*
X00374Y01021*
X00374Y0102*
X00374Y01019*
X00375Y01018*
X00375Y01018*
X00376Y01017*
X00376Y01017*
X00377Y01016*
X00378Y01016*
X00379Y01015*
X00379Y01015*
X0038Y01014*
X00381Y01014*
X00382Y01014*
X00382Y01014*
X00383Y01014*
X00384Y01014*
X00385*
X00386Y01014*
X00387Y01014*
X00387Y01014*
X00388Y01014*
X00389Y01014*
X0039Y01015*
X00391Y01015*
X00391Y01016*
X00392Y01016*
X00393Y01017*
X00393Y01017*
X00394Y01018*
X00394Y01018*
X00395Y01019*
X00395Y0102*
X00395Y01021*
X00396Y01021*
X00396Y01022*
X00396Y01023*
X00396Y01024*
X00396Y01025*
X00397Y01026*
X00653D02*
D01*
X00652Y01026*
X00652Y01027*
X00652Y01028*
X00652Y01029*
X00652Y0103*
X00651Y0103*
X00651Y01031*
X00651Y01032*
X0065Y01033*
X0065Y01033*
X00649Y01034*
X00649Y01034*
X00648Y01035*
X00647Y01035*
X00647Y01036*
X00646Y01036*
X00645Y01037*
X00644Y01037*
X00643Y01037*
X00643Y01037*
X00642Y01037*
X00641Y01037*
X0064*
X00639Y01037*
X00638Y01037*
X00638Y01037*
X00637Y01037*
X00636Y01037*
X00635Y01036*
X00635Y01036*
X00634Y01035*
X00633Y01035*
X00632Y01034*
X00632Y01034*
X00631Y01033*
X00631Y01033*
X0063Y01032*
X0063Y01031*
X0063Y0103*
X00629Y0103*
X00629Y01029*
X00629Y01028*
X00629Y01027*
X00629Y01026*
X00629Y01026*
X00629Y01025*
X00629Y01024*
X00629Y01023*
X00629Y01022*
X00629Y01021*
X0063Y01021*
X0063Y0102*
X0063Y01019*
X00631Y01018*
X00631Y01018*
X00632Y01017*
X00632Y01017*
X00633Y01016*
X00634Y01016*
X00635Y01015*
X00635Y01015*
X00636Y01014*
X00637Y01014*
X00638Y01014*
X00638Y01014*
X00639Y01014*
X0064Y01014*
X00641*
X00642Y01014*
X00643Y01014*
X00643Y01014*
X00644Y01014*
X00645Y01014*
X00646Y01015*
X00647Y01015*
X00647Y01016*
X00648Y01016*
X00649Y01017*
X00649Y01017*
X0065Y01018*
X0065Y01018*
X00651Y01019*
X00651Y0102*
X00651Y01021*
X00652Y01021*
X00652Y01022*
X00652Y01023*
X00652Y01024*
X00652Y01025*
X00653Y01026*
M02*