%FSTAX23Y23*%
%MOIN*%
%SFA1B1*%

%IPPOS*%
%ADD78C,0.005000*%
%LNbatt_man_rev2_drillmap_1-1*%
%LPD*%
G54D78*
X03549Y00921D02*
X03589D01*
X03569Y00901D02*
Y00941D01*
X03431Y00921D02*
X03471D01*
X03451Y00901D02*
Y00941D01*
X03549Y01039D02*
X03589D01*
X03569Y01019D02*
Y01059D01*
X03431Y01039D02*
X03471D01*
X03451Y01019D02*
Y01059D01*
X03586Y00803D02*
X03626D01*
X03606Y00783D02*
Y00823D01*
X03586Y01157D02*
X03626D01*
X03606Y01137D02*
Y01177D01*
X02435Y0069D02*
X02475D01*
X02455Y0067D02*
Y0071D01*
X02435Y0079D02*
X02475D01*
X02455Y0077D02*
Y0081D01*
X02435Y0089D02*
X02475D01*
X02455Y0087D02*
Y0091D01*
X02435Y0099D02*
X02475D01*
X02455Y0097D02*
Y0101D01*
X02435Y0109D02*
X02475D01*
X02455Y0107D02*
Y0111D01*
X02435Y0119D02*
X02475D01*
X02455Y0117D02*
Y0121D01*
X03407Y01625D02*
X03583D01*
X03495Y01537D02*
Y01713D01*
X03407Y0192D02*
X03583D01*
X03495Y01832D02*
Y02008D01*
X03475Y01432D02*
X03605D01*
X0354Y01367D02*
Y01497D01*
X03475Y0209D02*
X03605D01*
X0354Y02025D02*
Y02155D01*
X01797Y01685D02*
X01973D01*
X01885Y01597D02*
Y01773D01*
X02092Y01685D02*
X02268D01*
X0218Y01597D02*
Y01773D01*
X01627Y0164D02*
X01757D01*
X01692Y01575D02*
Y01705D01*
X02285Y0164D02*
X02415D01*
X0235Y01575D02*
Y01705D01*
X03005Y01403D02*
X03045D01*
X03025Y01383D02*
Y01423D01*
X03005Y01285D02*
X03045D01*
X03025Y01265D02*
Y01305D01*
X02887Y01403D02*
X02927D01*
X02907Y01383D02*
Y01423D01*
X02887Y01285D02*
X02927D01*
X02907Y01265D02*
Y01305D01*
X03123Y0144D02*
X03163D01*
X03143Y0142D02*
Y0146D01*
X02769Y0144D02*
X02809D01*
X02789Y0142D02*
Y0146D01*
X02107Y0337D02*
X02155D01*
X02131Y03346D02*
Y03394D01*
X01695Y0337D02*
X01743D01*
X01719Y03346D02*
Y03394D01*
X00948Y02193D02*
X01002D01*
X00975Y02166D02*
Y0222D01*
X00948Y01755D02*
X01002D01*
X00975Y01728D02*
Y01782D01*
X00769Y03118D02*
X00832D01*
X008Y03087D02*
Y0315D01*
X01158Y03118D02*
X01221D01*
X0119Y03087D02*
Y0315D01*
X01158Y03252D02*
X01221D01*
X0119Y0322D02*
Y03283D01*
X00769Y03252D02*
X00832D01*
X008Y0322D02*
Y03283D01*
X00242Y0282D02*
X00418D01*
X0033Y02732D02*
Y02908D01*
X00242Y02525D02*
X00418D01*
X0033Y02437D02*
Y02613D01*
X0022Y03013D02*
X0035D01*
X00285Y02948D02*
Y03078D01*
X0022Y02355D02*
X0035D01*
X00285Y0229D02*
Y0242D01*
X03412Y02835D02*
X03588D01*
X035Y02747D02*
Y02923D01*
X03412Y0254D02*
X03588D01*
X035Y02452D02*
Y02628D01*
X0339Y03028D02*
X0352D01*
X03455Y02963D02*
Y03093D01*
X0339Y0237D02*
X0352D01*
X03455Y02305D02*
Y02435D01*
X02752Y0284D02*
X02928D01*
X0284Y02752D02*
Y02928D01*
X02752Y02545D02*
X02928D01*
X0284Y02457D02*
Y02633D01*
X0273Y03033D02*
X0286D01*
X02795Y02968D02*
Y03098D01*
X0273Y02375D02*
X0286D01*
X02795Y0231D02*
Y0244D01*
X01278Y0172D02*
X01303D01*
X0129Y01707D02*
Y01732D01*
X01327Y0172D02*
X01352D01*
X0134Y01707D02*
Y01732D01*
X01378Y0172D02*
X01403D01*
X0139Y01707D02*
Y01732D01*
X01428Y0172D02*
X01452D01*
X0144Y01707D02*
Y01732D01*
X01477Y0172D02*
X01503D01*
X0149Y01707D02*
Y01732D01*
X01278Y0177D02*
X01303D01*
X0129Y01758D02*
Y01783D01*
X01327Y0177D02*
X01352D01*
X0134Y01758D02*
Y01783D01*
X01378Y0177D02*
X01403D01*
X0139Y01758D02*
Y01783D01*
X01428Y0177D02*
X01452D01*
X0144Y01758D02*
Y01783D01*
X01477Y0177D02*
X01503D01*
X0149Y01758D02*
Y01783D01*
X00366Y01204D02*
X00405D01*
X00385Y01184D02*
Y01223D01*
X00621Y01204D02*
X0066D01*
X00641Y01184D02*
Y01223D01*
X00366Y01026D02*
X00405D01*
X00385Y01007D02*
Y01046D01*
X00621Y01026D02*
X0066D01*
X00641Y01007D02*
Y01046D01*
X00143Y0131D02*
X00187D01*
X00165Y01288D02*
Y01332D01*
X00143Y0121D02*
X00187D01*
X00165Y01188D02*
Y01232D01*
X00143Y0111D02*
X00187D01*
X00165Y01088D02*
Y01132D01*
X00637Y01758D02*
X0067D01*
X00654Y01742D02*
Y01775D01*
X00637Y0166D02*
X0067D01*
X00654Y01644D02*
Y01676D01*
X00637Y01562D02*
X0067D01*
X00654Y01545D02*
Y01578D01*
X00087Y03345D02*
X00213D01*
X0015Y03282D02*
Y03408D01*
X00087Y0061D02*
X00213D01*
X0015Y00547D02*
Y00673D01*
X03592Y03345D02*
X03718D01*
X03655Y03282D02*
Y03408D01*
X03592Y0061D02*
X03718D01*
X03655Y00547D02*
Y00673D01*
X02543Y0203D02*
X02587D01*
X02565Y02008D02*
Y02052D01*
X03143Y0203D02*
X03187D01*
X03165Y02008D02*
Y02052D01*
X02053Y0291D02*
X02096D01*
X02075Y02888D02*
Y02931D01*
X01653Y0291D02*
X01696D01*
X01675Y02888D02*
Y02931D01*
X01485Y0231D02*
X01566D01*
X01525Y0227D02*
Y02351D01*
X01836Y0301D02*
X01914D01*
X01875Y02971D02*
Y03049D01*
X02186Y0241D02*
X02264D01*
X02225Y02371D02*
Y02449D01*
X02968Y01085D02*
X03012D01*
X0299Y01063D02*
Y01107D01*
X03068Y01085D02*
X03112D01*
X0309Y01063D02*
Y01107D01*
X03168Y01085D02*
X03212D01*
X0319Y01063D02*
Y01107D01*
X00896Y0135D02*
X00924D01*
X0091Y01336D02*
Y01364D01*
X00898Y01111D02*
X00926D01*
X00912Y01097D02*
Y01125D01*
X00741Y00555D02*
X00769D01*
X00755Y00541D02*
Y00569D01*
X03186Y0066D02*
X03214D01*
X032Y00646D02*
Y00674D01*
X02956Y0066D02*
X02984D01*
X0297Y00646D02*
Y00674D01*
X01201Y0142D02*
X01229D01*
X01215Y01406D02*
Y01434D01*
X01166Y00845D02*
X01194D01*
X0118Y00831D02*
Y00859D01*
X01171Y01065D02*
X01199D01*
X01185Y01051D02*
Y01079D01*
X02256Y01485D02*
X02284D01*
X0227Y01471D02*
Y01499D01*
X01375Y0151D02*
X01403D01*
X01389Y01496D02*
Y01524D01*
X03041Y0177D02*
X03069D01*
X03055Y01756D02*
Y01784D01*
X00419Y01315D02*
X00447D01*
X00433Y01301D02*
Y01329D01*
X03046Y01555D02*
X03074D01*
X0306Y01541D02*
Y01569D01*
X01876Y01095D02*
X01904D01*
X0189Y01081D02*
Y01109D01*
X01866Y0131D02*
X01894D01*
X0188Y01296D02*
Y01324D01*
X01301Y01355D02*
X01329D01*
X01315Y01341D02*
Y01369D01*
X01516Y01355D02*
X01544D01*
X0153Y01341D02*
Y01369D01*
X01336Y00724D02*
X01364D01*
X0135Y0071D02*
Y00738D01*
X01541Y00727D02*
X01569D01*
X01555Y00713D02*
Y00741D01*
X01861Y00728D02*
X01889D01*
X01875Y00714D02*
Y00742D01*
X01631Y00724D02*
X01659D01*
X01645Y0071D02*
Y00738D01*
X02481Y0164D02*
X02509D01*
X02495Y01626D02*
Y01654D01*
X02466Y01395D02*
X02494D01*
X0248Y01381D02*
Y01409D01*
X02687Y01775D02*
X02715D01*
X02701Y01761D02*
Y01789D01*
X02554Y01505D02*
X02582D01*
X02568Y01491D02*
Y01519D01*
X02554Y01815D02*
X02582D01*
X02568Y01801D02*
Y01829D01*
M02*