%FSTAX23Y23*%
%MOIN*%
%SFA1B1*%

%IPPOS*%
%AMD52*
1,1,0.100000,0.000000,0.000000*
1,0,0.080000,0.000000,0.000000*
4,0,4,0.024700,0.046000,-0.046000,-0.024700,-0.024700,-0.046000,0.046000,0.024700,0.024700,0.046000,0.0*
4,0,4,-0.024700,0.046000,0.046000,-0.024700,0.024700,-0.046000,-0.046000,0.024700,-0.024700,0.046000,0.0*
%
%AMD54*
1,1,0.100157,0.000000,0.000000*
1,0,0.080157,0.000000,0.000000*
4,0,4,0.024700,0.046000,-0.046000,-0.024700,-0.024700,-0.046000,0.046000,0.024700,0.024700,0.046000,0.0*
4,0,4,-0.024700,0.046000,0.046000,-0.024700,0.024700,-0.046000,-0.046000,0.024700,-0.024700,0.046000,0.0*
%
%AMD66*
1,1,0.085000,0.000000,0.000000*
1,0,0.065000,0.000000,0.000000*
4,0,4,0.019400,0.040700,-0.040700,-0.019400,-0.019400,-0.040700,0.040700,0.019400,0.019400,0.040700,0.0*
4,0,4,-0.019400,0.040700,0.040700,-0.019400,0.019400,-0.040700,-0.040700,0.019400,-0.019400,0.040700,0.0*
%
%AMD69*
1,1,0.103307,0.000000,0.000000*
1,0,0.083307,0.000000,0.000000*
4,0,4,0.025900,0.047100,-0.047100,-0.025900,-0.025900,-0.047100,0.047100,0.025900,0.025900,0.047100,0.0*
4,0,4,-0.025900,0.047100,0.047100,-0.025900,0.025900,-0.047100,-0.047100,0.025900,-0.025900,0.047100,0.0*
%
%AMD72*
1,1,0.092874,0.000000,0.000000*
1,0,0.072874,0.000000,0.000000*
4,0,4,0.022200,0.043400,-0.043400,-0.022200,-0.022200,-0.043400,0.043400,0.022200,0.022200,0.043400,0.0*
4,0,4,-0.022200,0.043400,0.043400,-0.022200,0.022200,-0.043400,-0.043400,0.022200,-0.022200,0.043400,0.0*
%
%ADD46C,0.121000*%
%ADD50C,0.040000*%
%ADD51C,0.080000*%
G04~CAMADD=52~12~0.0~0.0~0.0~0.0~0.0~0.0~0~1000.0~800.0~0.0~45.0~4~300.0~0.0~0.0~0.0~0~0.0~0.0~0.0~0.0~1000.0~1000.0*
%ADD52D52*%
%ADD53C,0.080000*%
G04~CAMADD=54~12~0.0~0.0~0.0~0.0~0.0~0.0~0~1001.6~801.6~0.0~45.0~4~300.0~0.0~0.0~0.0~0~0.0~0.0~0.0~0.0~1001.6~1001.6*
%ADD54D54*%
%ADD56O,0.216000X0.070000*%
%ADD57C,0.170000*%
%ADD58O,0.070000X0.216000*%
%ADD59C,0.087000*%
%ADD60C,0.094000*%
%ADD62C,0.103000*%
%ADD65C,0.065000*%
G04~CAMADD=66~12~0.0~0.0~0.0~0.0~0.0~0.0~0~850.0~650.0~0.0~45.0~4~300.0~0.0~0.0~0.0~0~0.0~0.0~0.0~0.0~850.0~850.0*
%ADD66D66*%
%ADD67C,0.079000*%
G04~CAMADD=69~12~0.0~0.0~0.0~0.0~0.0~0.0~0~1033.1~833.1~0.0~45.0~4~300.0~0.0~0.0~0.0~0~0.0~0.0~0.0~0.0~1033.1~1033.1*
%ADD69D69*%
%ADD70C,0.083000*%
%ADD71C,0.073000*%
G04~CAMADD=72~12~0.0~0.0~0.0~0.0~0.0~0.0~0~928.7~728.7~0.0~45.0~4~300.0~0.0~0.0~0.0~0~0.0~0.0~0.0~0.0~928.7~928.7*
%ADD72D72*%
%ADD73C,0.166000*%
%ADD74C,0.085000*%
%ADD75C,0.083000*%
%ADD76C,0.118000*%
%ADD77C,0.068000*%
%LNbatt_man_rev2_copper_plane_2-1*%
%LPD*%
G54D46*
X01525Y0231D03*
G54D50*
X00086Y03496D02*
D01*
X0008Y03496*
X00074Y03495*
X00069Y03495*
X00063Y03494*
X00057Y03492*
X00052Y03491*
X00047Y03488*
X00042Y03486*
X00037Y03483*
X00032Y0348*
X00028Y03476*
X00024Y03472*
X0002Y03468*
X00016Y03464*
X00013Y03459*
X0001Y03455*
X00007Y03449*
X00005Y03444*
X00003Y03439*
X00002Y03433*
X0Y03428*
X0Y03422*
X0Y03417*
X0Y03411*
X0Y03405*
X0Y03405*
X03804Y03376D02*
D01*
X03803Y03384*
X03802Y03392*
X03801Y034*
X03799Y03409*
X03796Y03417*
X03793Y03424*
X03789Y03432*
X03785Y03439*
X03781Y03446*
X03775Y03453*
X0377Y03459*
X03764Y03465*
X03757Y0347*
X03751Y03475*
X03744Y03479*
X03736Y03483*
X03728Y03487*
X03721Y0349*
X03713Y03492*
X03704Y03494*
X03696Y03495*
X03688Y03495*
X03679*
X03674Y03496*
X03678Y00462D02*
D01*
X03686Y00461*
X03694Y00462*
X03703Y00463*
X03711Y00465*
X03719Y00467*
X03727Y0047*
X03735Y00473*
X03742Y00477*
X0375Y00482*
X03756Y00487*
X03763Y00492*
X03769Y00498*
X03775Y00504*
X0378Y00511*
X03785Y00518*
X03789Y00525*
X03793Y00533*
X03796Y0054*
X03799Y00548*
X03801Y00557*
X03802Y00565*
X03803Y00573*
X03804Y00582*
X03803Y0059*
X03803Y00597*
X0Y0057D02*
D01*
X0Y00562*
X0Y00555*
X00001Y00548*
X00002Y00541*
X00004Y00534*
X00006Y00527*
X00009Y00521*
X00013Y00514*
X00016Y00508*
X0002Y00502*
X00025Y00497*
X0003Y00491*
X00035Y00486*
X00041Y00482*
X00047Y00478*
X00053Y00474*
X00059Y00471*
X00066Y00468*
X00073Y00466*
X0008Y00464*
X00087Y00463*
X00094Y00462*
X00101Y00461*
X00108Y00462*
X03678*
X03803Y00597D02*
X03804Y00598D01*
Y03376*
X03673Y03496D02*
X03674D01*
X00086D02*
X03673D01*
X0Y03405D02*
D01*
Y0057D02*
Y03405D01*
G54D51*
X03451Y00921D03*
X03569Y01039D03*
X03451D03*
X03606Y00803D03*
Y01157D03*
X03025Y01285D03*
X02907Y01403D03*
Y01285D03*
X03143Y0144D03*
X02789D03*
G54D52*
X03569Y00921D03*
X03025Y01403D03*
G54D53*
X02455Y0079D03*
Y0089D03*
Y0099D03*
Y0109D03*
Y0119D03*
G54D54*
X02455Y0069D03*
G54D56*
X03495Y01625D03*
Y0192D03*
X0033Y0282D03*
Y02525D03*
X035Y02835D03*
Y0254D03*
X0284Y0284D03*
Y02545D03*
G54D57*
X0354Y01432D03*
Y0209D03*
X01692Y0164D03*
X0235D03*
X00285Y03013D03*
Y02355D03*
X03455Y03028D03*
Y0237D03*
X02795Y03033D03*
Y02375D03*
G54D58*
X01885Y01685D03*
X0218D03*
G54D59*
X02131Y0337D03*
X01719D03*
G54D60*
X00975Y02193D03*
Y01755D03*
G54D62*
X008Y03118D03*
X0119D03*
Y03252D03*
X008D03*
G54D65*
X0129Y0172D03*
X0134D03*
X0139D03*
X0144D03*
X0149D03*
X0129Y0177D03*
X0134D03*
X0139D03*
X0144D03*
G54D66*
X0149Y0177D03*
G54D67*
X00385Y01204D03*
X00641D03*
X00385Y01026D03*
X00641D03*
G54D69*
X00165Y0111D03*
G54D70*
X00165Y0131D03*
Y0121D03*
X0299Y01085D03*
X0309D03*
X0319D03*
G54D71*
X00654Y01758D03*
Y0166D03*
G54D72*
X00654Y01562D03*
G54D73*
X0015Y03345D03*
Y0061D03*
X03655Y03345D03*
Y0061D03*
G54D74*
X02565Y0203D03*
X03165D03*
G54D75*
X02075Y0291D03*
X01675D03*
G54D76*
X01875Y0301D03*
X02225Y0241D03*
G54D77*
X00912Y01111D03*
X00755Y00555D03*
X0297Y0066D03*
X01215Y0142D03*
X01185Y01065D03*
X0227Y01485D03*
X01389Y0151D03*
X03055Y0177D03*
X00433Y01315D03*
X0189Y01095D03*
X0153Y01355D03*
X0135Y00724D03*
X01645D03*
X02495Y0164D03*
X0248Y01395D03*
X02701Y01775D03*
M02*