%FSTAX23Y23*%
%MOIN*%
%SFA1B1*%

%IPPOS*%
%ADD75C,0.083000*%
%ADD79C,0.068000*%
%ADD80C,0.008000*%
%ADD81R,0.069000X0.069000*%
%ADD82C,0.069000*%
%ADD83O,0.215000X0.068000*%
%ADD84C,0.152000*%
%ADD85O,0.068000X0.215000*%
%ADD86C,0.087000*%
%ADD87R,0.087000X0.087000*%
%ADD88C,0.089000*%
%ADD89C,0.091000*%
%ADD90R,0.091000X0.091000*%
%ADD91C,0.045000*%
%ADD92R,0.045000X0.045000*%
%ADD93C,0.067000*%
%ADD94C,0.073000*%
%ADD95C,0.057000*%
%ADD96C,0.248000*%
%ADD97C,0.072000*%
%ADD98C,0.129000*%
%ADD99C,0.125000*%
%ADD100R,0.125000X0.125000*%
%ADD101C,0.058000*%
%LNbatt_man_rev2_soldermask_bot-1*%
%LPD*%
G54D75*
X02565Y0203D03*
X03165D03*
G54D79*
X03569Y00921D03*
X03451D03*
X03569Y01039D03*
X03451D03*
X03025Y01403D03*
Y01285D03*
X02907Y01403D03*
Y01285D03*
G54D80*
X03606Y00803D03*
Y01157D03*
X03143Y0144D03*
X02789D03*
G54D81*
X02455Y0069D03*
G54D82*
X02455Y0079D03*
Y0089D03*
Y0099D03*
Y0109D03*
Y0119D03*
G54D83*
X03495Y01625D03*
Y0192D03*
X0033Y0282D03*
Y02525D03*
X035Y02835D03*
Y0254D03*
X0284Y0284D03*
Y02545D03*
G54D84*
X0354Y01432D03*
Y0209D03*
X01692Y0164D03*
X0235D03*
X00285Y03013D03*
Y02355D03*
X03455Y03028D03*
Y0237D03*
X02795Y03033D03*
Y02375D03*
G54D85*
X01885Y01685D03*
X0218D03*
G54D86*
X02131Y0337D03*
G54D87*
X01719Y0337D03*
G54D88*
X00975Y02193D03*
Y01755D03*
G54D89*
X008Y03118D03*
X0119D03*
Y03252D03*
G54D90*
X008Y03252D03*
G54D91*
X0129Y0172D03*
X0134D03*
X0139D03*
X0144D03*
X0149D03*
X0129Y0177D03*
X0134D03*
X0139D03*
X0144D03*
G54D92*
X0149Y0177D03*
G54D93*
X00385Y01204D03*
X00641D03*
X00385Y01026D03*
X00641D03*
G54D94*
X00165Y0131D03*
Y0121D03*
Y0111D03*
X0299Y01085D03*
X0309D03*
X0319D03*
G54D95*
X00654Y01758D03*
Y0166D03*
Y01562D03*
G54D96*
X0015Y03345D03*
Y0061D03*
X03655Y03345D03*
Y0061D03*
G54D97*
X02075Y0291D03*
X01675D03*
G54D98*
X01525Y0231D03*
G54D99*
X01875Y0301D03*
G54D100*
X02225Y0241D03*
G54D101*
X0091Y0135D03*
X00912Y01111D03*
X00755Y00555D03*
X032Y0066D03*
X0297D03*
X01215Y0142D03*
X0118Y00845D03*
X01185Y01065D03*
X0227Y01485D03*
X01389Y0151D03*
X03055Y0177D03*
X00433Y01315D03*
X0306Y01555D03*
X0189Y01095D03*
X0188Y0131D03*
X01315Y01355D03*
X0153D03*
X0135Y00724D03*
X01555Y00727D03*
X01875Y00728D03*
X01645Y00724D03*
X02495Y0164D03*
X0248Y01395D03*
X02701Y01775D03*
X02568Y01505D03*
Y01815D03*
M02*