%FSTAX23Y23*%
%MOIN*%
%SFA1B1*%

%IPPOS*%
%ADD124C,0.040000*%
%ADD125C,0.040000*%
%ADD126C,0.040000*%
%ADD127O,0.176000X0.030000*%
%ADD128C,0.130000*%
%ADD129O,0.030000X0.176000*%
%ADD130C,0.130000*%
%ADD131C,0.047000*%
%ADD132C,0.054000*%
%ADD133C,0.063000*%
%ADD134C,0.025000*%
%ADD135C,0.039000*%
%ADD136C,0.043000*%
%ADD137C,0.033000*%
%ADD138C,0.126000*%
%ADD139C,0.126000*%
%ADD140C,0.126000*%
%ADD141C,0.126000*%
%ADD142C,0.045000*%
%ADD143C,0.043000*%
%ADD144C,0.081000*%
%ADD145C,0.078000*%
%ADD146C,0.043000*%
%ADD147C,0.028000*%
%LNbatt_man_rev2_pth_drill-1*%
%LPD*%
G54D124*
X03569Y00921D03*
X03451D03*
X03569Y01039D03*
X03451D03*
G54D125*
X03025Y01403D03*
Y01285D03*
X02907Y01403D03*
Y01285D03*
G54D126*
X02455Y0069D03*
Y0079D03*
Y0089D03*
Y0099D03*
Y0109D03*
Y0119D03*
G54D127*
X03495Y01625D03*
Y0192D03*
X0033Y0282D03*
Y02525D03*
X035Y02835D03*
Y0254D03*
X0284Y0284D03*
Y02545D03*
G54D128*
X0354Y01432D03*
Y0209D03*
X00285Y03013D03*
Y02355D03*
X03455Y03028D03*
Y0237D03*
X02795Y03033D03*
Y02375D03*
G54D129*
X01885Y01685D03*
X0218D03*
G54D130*
X01692Y0164D03*
X0235D03*
G54D131*
X02131Y0337D03*
X01719D03*
G54D132*
X00975Y02193D03*
Y01755D03*
G54D133*
X008Y03118D03*
X0119D03*
Y03252D03*
X008D03*
G54D134*
X0129Y0172D03*
X0134D03*
X0139D03*
X0144D03*
X0149D03*
X0129Y0177D03*
X0134D03*
X0139D03*
X0144D03*
X0149D03*
G54D135*
X00385Y01204D03*
X00641D03*
X00385Y01026D03*
X00641D03*
G54D136*
X00165Y0131D03*
Y0121D03*
Y0111D03*
G54D137*
X00654Y01758D03*
Y0166D03*
Y01562D03*
G54D138*
X0015Y03345D03*
G54D139*
X0015Y0061D03*
G54D140*
X03655Y03345D03*
G54D141*
X03655Y0061D03*
G54D142*
X02565Y0203D03*
X03165D03*
G54D143*
X02075Y0291D03*
X01675D03*
G54D144*
X01525Y0231D03*
G54D145*
X01875Y0301D03*
X02225Y0241D03*
G54D146*
X0299Y01085D03*
X0309D03*
X0319D03*
G54D147*
X0091Y0135D03*
X00912Y01111D03*
X00755Y00555D03*
X032Y0066D03*
X0297D03*
X01215Y0142D03*
X0118Y00845D03*
X01185Y01065D03*
X0227Y01485D03*
X01389Y0151D03*
X03055Y0177D03*
X00433Y01315D03*
X0306Y01555D03*
X0189Y01095D03*
X0188Y0131D03*
X01315Y01355D03*
X0153D03*
X0135Y00724D03*
X01555Y00727D03*
X01875Y00728D03*
X01645Y00724D03*
X02495Y0164D03*
X0248Y01395D03*
X02701Y01775D03*
X02568Y01505D03*
Y01815D03*
M02*